<?xml version="1.0" encoding="UTF-8"?>
<!DOCTYPE svg PUBLIC "-//W3C//DTD SVG 1.1//EN" "http://www.w3.org/Graphics/SVG/1.1/DTD/svg11.dtd">
<svg xmlns="http://www.w3.org/2000/svg" version="1.1" width="351px" height="356px" style="shape-rendering:geometricPrecision; text-rendering:geometricPrecision; image-rendering:optimizeQuality; fill-rule:evenodd; clip-rule:evenodd" xmlns:xlink="http://www.w3.org/1999/xlink">


<g><path style="opacity:1" fill="#f3f3f3" d="M 247.5,-0.5 C 281.833,-0.5 316.167,-0.5 350.5,-0.5C 350.5,8.5 350.5,17.5 350.5,26.5C 349.167,26.5 347.833,26.5 346.5,26.5C 345.833,2.5 345.167,2.5 344.5,26.5C 335.167,27.1667 335.167,27.8333 344.5,28.5C 344.5,34.5 344.5,40.5 344.5,46.5C 341.833,46.5 339.167,46.5 336.5,46.5C 336.5,44.1667 336.5,41.8333 336.5,39.5C 340.5,38.8333 340.5,38.1667 336.5,37.5C 336.167,25.5 335.833,25.5 335.5,37.5C 332.482,37.3354 329.482,37.502 326.5,38C 329.167,38.3333 331.833,38.6667 334.5,39C 335.435,41.3806 335.768,43.8806 335.5,46.5C 325.833,46.5 316.167,46.5 306.5,46.5C 306.5,40.5 306.5,34.5 306.5,28.5C 309.572,28.8174 312.572,28.4841 315.5,27.5C 309.537,26.5041 303.537,26.1707 297.5,26.5C 297.5,23.5 297.5,20.5 297.5,17.5C 293.833,17.5 290.167,17.5 286.5,17.5C 286.689,13.6518 286.689,9.98512 286.5,6.5C 285.773,10.5107 285.107,14.5107 284.5,18.5C 288.107,19.4892 291.774,19.8226 295.5,19.5C 295.5,21.8333 295.5,24.1667 295.5,26.5C 283.5,27.1667 283.5,27.8333 295.5,28.5C 295.5,31.5 295.5,34.5 295.5,37.5C 283.5,38.1667 283.5,38.8333 295.5,39.5C 295.5,41.8333 295.5,44.1667 295.5,46.5C 292.167,46.5 288.833,46.5 285.5,46.5C 285.5,50.1667 285.5,53.8333 285.5,57.5C 282.833,57.5 280.167,57.5 277.5,57.5C 277.5,51.5 277.5,45.5 277.5,39.5C 286.833,38.8333 286.833,38.1667 277.5,37.5C 277.5,34.5 277.5,31.5 277.5,28.5C 286.833,27.8333 286.833,27.1667 277.5,26.5C 277.89,23.5342 277.223,20.8676 275.5,18.5C 269.537,17.5041 263.537,17.1707 257.5,17.5C 257.5,14.5 257.5,11.5 257.5,8.5C 259.857,8.66331 262.19,8.49665 264.5,8C 258.843,7.50058 253.176,7.33391 247.5,7.5C 247.5,4.83333 247.5,2.16667 247.5,-0.5 Z"/></g>
<g><path style="opacity:1" fill="#fefefe" d="M -0.5,48.5 C 1.83333,48.5 4.16667,48.5 6.5,48.5C 6.5,54.5 6.5,60.5 6.5,66.5C 4.16667,66.5 1.83333,66.5 -0.5,66.5C -0.5,60.5 -0.5,54.5 -0.5,48.5 Z"/></g>
<g><path style="opacity:1" fill="#dddddd" d="M 17.5,57.5 C 14.7131,58.4767 11.7131,58.81 8.5,58.5C 8.5,64.8333 8.5,71.1667 8.5,77.5C 14.5,77.5 20.5,77.5 26.5,77.5C 27.7647,78.5145 28.4313,80.0145 28.5,82C 28.1667,83.5 27.8333,85 27.5,86.5C 26.52,83.9135 26.1866,81.2469 26.5,78.5C 24.1667,78.5 21.8333,78.5 19.5,78.5C 18.8333,89.1667 18.1667,89.1667 17.5,78.5C 14.5,78.5 11.5,78.5 8.5,78.5C 8.66409,81.1873 8.49742,83.854 8,86.5C 7.50051,80.5092 7.33385,74.5092 7.5,68.5C 4.83333,68.5 2.16667,68.5 -0.5,68.5C -0.5,67.8333 -0.5,67.1667 -0.5,66.5C 1.83333,66.5 4.16667,66.5 6.5,66.5C 6.5,60.5 6.5,54.5 6.5,48.5C 4.16667,48.5 1.83333,48.5 -0.5,48.5C -0.5,47.8333 -0.5,47.1667 -0.5,46.5C 1.83333,46.5 4.16667,46.5 6.5,46.5C 6.5,40.5 6.5,34.5 6.5,28.5C 4.16667,28.5 1.83333,28.5 -0.5,28.5C -0.5,27.8333 -0.5,27.1667 -0.5,26.5C 2.16667,26.5 4.83333,26.5 7.5,26.5C 7.33385,20.4908 7.50051,14.4908 8,8.5C 8.49796,11.4816 8.66463,14.4816 8.5,17.5C 20.5,18.1667 20.5,18.8333 8.5,19.5C 8.5,25.5 8.5,31.5 8.5,37.5C 20.5,37.8333 20.5,38.1667 8.5,38.5C 8.5,41.1667 8.5,43.8333 8.5,46.5C 20.5,47.1667 20.5,47.8333 8.5,48.5C 8.5,51.5 8.5,54.5 8.5,57.5C 11.5,57.5 14.5,57.5 17.5,57.5 Z"/></g>
<g><path style="opacity:1" fill="#101010" d="M 288.5,66.5 C 290.017,66.5106 291.184,67.1772 292,68.5C 294,71.1667 296,73.8333 298,76.5C 298.987,80.3482 297.487,82.3482 293.5,82.5C 292.794,87.7294 290.128,89.2294 285.5,87C 283.333,83.6671 280.666,80.8337 277.5,78.5C 280.464,73.8686 284.131,69.8686 288.5,66.5 Z"/></g>
<g><path style="opacity:1" fill="#030303" d="M 277.5,119.5 C 278.11,120.391 278.443,121.391 278.5,122.5C 278.634,124.292 278.301,125.958 277.5,127.5C 277.5,127.833 277.5,128.167 277.5,128.5C 253.01,140.576 230.343,155.41 209.5,173C 211.598,172.968 213.598,172.301 215.5,171C 232.739,159.462 250.239,148.295 268,137.5C 271.4,136.044 274.9,135.044 278.5,134.5C 279.167,134.5 279.5,134.833 279.5,135.5C 279.5,143.5 279.5,151.5 279.5,159.5C 279.5,164.833 279.5,170.167 279.5,175.5C 278.728,179.452 278.395,183.452 278.5,187.5C 278.5,188.833 278.5,190.167 278.5,191.5C 277.805,198.073 276.805,204.74 275.5,211.5C 254.846,226.648 233.512,240.815 211.5,254C 209.414,254.315 207.414,254.815 205.5,255.5C 203.142,255.747 201.142,255.081 199.5,253.5C 197.949,251.087 197.283,248.421 197.5,245.5C 199.915,241.578 202.915,238.078 206.5,235C 222.97,223.343 238.803,210.843 254,197.5C 257.743,189.43 258.41,181.097 256,172.5C 254.412,170.032 252.578,169.866 250.5,172C 228.92,187.041 207.42,202.208 186,217.5C 183.07,218.716 180.237,220.049 177.5,221.5C 175.825,221.132 174.825,220.132 174.5,218.5C 172.522,214.522 169.522,211.522 165.5,209.5C 141.428,197.306 116.928,185.973 92,175.5C 90.2674,185.79 90.1008,196.123 91.5,206.5C 110.534,215.682 129.201,225.349 147.5,235.5C 153.731,242.942 160.398,249.942 167.5,256.5C 167.5,257.5 167.5,258.5 167.5,259.5C 167.516,261.484 166.516,262.484 164.5,262.5C 151.609,258.386 138.943,253.719 126.5,248.5C 108.037,239.946 89.0369,232.446 69.5,226C 64.7735,224.26 60.9402,221.426 58,217.5C 59.5323,213.382 60.8657,209.048 62,204.5C 62.5822,186.766 63.9155,169.099 66,151.5C 67.5983,144.06 72.0983,140.06 79.5,139.5C 79.7328,142.909 81.3995,145.409 84.5,147C 110.746,158.958 137.079,170.625 163.5,182C 171.115,184.485 178.782,186.651 186.5,188.5C 190.321,189.163 193.154,187.829 195,184.5C 195.684,183.216 195.517,182.049 194.5,181C 190.082,180.792 185.749,180.126 181.5,179C 175.658,174.576 169.324,170.909 162.5,168C 135.159,157.829 108.159,146.829 81.5,135C 78.9133,133.475 78.0799,131.308 79,128.5C 81.4786,126.034 83.9786,123.701 86.5,121.5C 89.117,120.214 91.4504,118.547 93.5,116.5C 94.8333,116.167 96.1667,115.833 97.5,115.5C 99.0174,115.511 100.184,116.177 101,117.5C 102.085,122.437 102.752,127.437 103,132.5C 104.087,126.247 104.92,119.913 105.5,113.5C 113.176,108.663 120.843,103.83 128.5,99C 131.167,98.6667 133.833,98.3333 136.5,98C 139.022,93.9927 141.689,90.1593 144.5,86.5C 145.5,86.1667 146.167,85.5 146.5,84.5C 149.879,81.4326 152.546,77.766 154.5,73.5C 155.85,72.0499 157.516,71.3832 159.5,71.5C 159.238,72.9778 159.571,74.3112 160.5,75.5C 164.305,73.1703 168.305,73.0036 172.5,75C 196.407,87.2833 221.074,97.95 246.5,107C 250.167,109.333 253.833,111.667 257.5,114C 264.28,115.528 270.946,117.361 277.5,119.5 Z"/></g>
<g><path style="opacity:1" fill="#101010" d="M 60.5,80.5 C 61.4309,82.0332 62.0976,83.6998 62.5,85.5C 61.7485,87.9963 60.7485,90.3296 59.5,92.5C 51.4832,97.8244 46.1498,95.8244 43.5,86.5C 44.7653,83.4752 46.432,80.6418 48.5,78C 50.3453,76.872 52.3453,76.372 54.5,76.5C 54.5944,79.5406 53.0944,81.2072 50,81.5C 45.9089,88.0778 47.7423,91.2444 55.5,91C 60.0299,85.6492 59.3632,84.1492 53.5,86.5C 53.7811,84.0372 54.7811,81.8705 56.5,80C 57.9285,79.4209 59.2618,79.5876 60.5,80.5 Z"/></g>
<g><path style="opacity:1" fill="#eaeaea" d="M 86.5,-0.5 C 87.1667,-0.5 87.8333,-0.5 88.5,-0.5C 88.5,1.83333 88.5,4.16667 88.5,6.5C 111.167,6.83333 111.167,7.16667 88.5,7.5C 88.5,13.8333 88.5,20.1667 88.5,26.5C 100.5,27.1667 100.5,27.8333 88.5,28.5C 88.5,31.5 88.5,34.5 88.5,37.5C 89.8333,37.5 91.1667,37.5 92.5,37.5C 90.2294,39.2659 88.0627,41.2659 86,43.5C 84.4615,49.7565 86.6282,54.0899 92.5,56.5C 105.814,53.5592 107.814,47.2259 98.5,37.5C 101.167,37.5 103.833,37.5 106.5,37.5C 106.5,34.5 106.5,31.5 106.5,28.5C 97.1667,27.8333 97.1667,27.1667 106.5,26.5C 106.171,20.4632 106.504,14.4632 107.5,8.5C 108.484,11.4281 108.817,14.4281 108.5,17.5C 121.5,17.5 134.5,17.5 147.5,17.5C 145.282,18.0159 143.282,19.0159 141.5,20.5C 142.49,24.1051 143.156,27.7717 143.5,31.5C 142.596,30.791 142.263,29.791 142.5,28.5C 141.167,28.5 139.833,28.5 138.5,28.5C 137.833,43.1667 137.167,43.1667 136.5,28.5C 133.5,28.5 130.5,28.5 127.5,28.5C 128.08,32.649 127.414,36.3157 125.5,39.5C 125.5,37.1667 125.5,34.8333 125.5,32.5C 123.073,32.523 120.74,33.023 118.5,34C 117.549,34.7175 117.383,35.5509 118,36.5C 122.79,37.2582 122.624,38.7582 117.5,41C 114.702,41.5608 112.869,40.3941 112,37.5C 110.86,34.4718 111.694,32.3051 114.5,31C 117.146,30.5026 119.813,30.3359 122.5,30.5C 122.523,27.8787 121.189,26.5454 118.5,26.5C 114.534,27.2335 111.034,28.9002 108,31.5C 106.102,37.6026 107.936,41.9359 113.5,44.5C 114.609,45.29 115.942,45.79 117.5,46C 117.281,49.6823 117.281,53.5156 117.5,57.5C 123.833,57.5 130.167,57.5 136.5,57.5C 136.833,45.5 137.167,45.5 137.5,57.5C 140.5,57.5 143.5,57.5 146.5,57.5C 146.249,54.091 146.583,50.7577 147.5,47.5C 150.428,46.5159 153.428,46.1826 156.5,46.5C 157.167,37.1667 157.833,37.1667 158.5,46.5C 164.5,46.5 170.5,46.5 176.5,46.5C 176.5,44.1667 176.5,41.8333 176.5,39.5C 164.5,38.8333 164.5,38.1667 176.5,37.5C 176.5,34.5 176.5,31.5 176.5,28.5C 174.833,28.5 173.167,28.5 171.5,28.5C 171.768,30.099 171.434,31.4324 170.5,32.5C 170.5,27.5 170.5,22.5 170.5,17.5C 173.5,17.5 176.5,17.5 179.5,17.5C 175.064,30.8994 179.731,35.7328 193.5,32C 195.113,29.7724 195.78,27.2724 195.5,24.5C 192.833,24.5 190.167,24.5 187.5,24.5C 187.5,25.5 187.5,26.5 187.5,27.5C 188.675,27.281 189.675,27.6143 190.5,28.5C 181.899,30.7942 179.566,27.9609 183.5,20C 186.649,18.9654 189.316,19.6321 191.5,22C 192.793,22.49 194.127,22.6567 195.5,22.5C 195.608,20.4862 194.942,18.8195 193.5,17.5C 197.5,17.5 201.5,17.5 205.5,17.5C 203.821,8.48765 207.487,5.15432 216.5,7.5C 225.513,5.15432 229.179,8.48765 227.5,17.5C 238.167,18.1667 238.167,18.8333 227.5,19.5C 227.5,21.8333 227.5,24.1667 227.5,26.5C 236.833,26.5 246.167,26.5 255.5,26.5C 255.5,24.1667 255.5,21.8333 255.5,19.5C 244.833,18.8333 244.833,18.1667 255.5,17.5C 255.5,14.5 255.5,11.5 255.5,8.5C 252.5,8.5 249.5,8.5 246.5,8.5C 246.665,11.5184 246.498,14.5184 246,17.5C 245.501,11.5092 245.334,5.50924 245.5,-0.5C 246.167,-0.5 246.833,-0.5 247.5,-0.5C 247.5,2.16667 247.5,4.83333 247.5,7.5C 253.176,7.33391 258.843,7.50058 264.5,8C 262.19,8.49665 259.857,8.66331 257.5,8.5C 257.5,11.5 257.5,14.5 257.5,17.5C 263.537,17.1707 269.537,17.5041 275.5,18.5C 277.223,20.8676 277.89,23.5342 277.5,26.5C 286.833,27.1667 286.833,27.8333 277.5,28.5C 277.5,31.5 277.5,34.5 277.5,37.5C 286.833,38.1667 286.833,38.8333 277.5,39.5C 277.5,45.5 277.5,51.5 277.5,57.5C 280.167,57.5 282.833,57.5 285.5,57.5C 285.5,53.8333 285.5,50.1667 285.5,46.5C 288.833,46.5 292.167,46.5 295.5,46.5C 295.5,44.1667 295.5,41.8333 295.5,39.5C 283.5,38.8333 283.5,38.1667 295.5,37.5C 295.5,34.5 295.5,31.5 295.5,28.5C 283.5,27.8333 283.5,27.1667 295.5,26.5C 295.5,24.1667 295.5,21.8333 295.5,19.5C 291.774,19.8226 288.107,19.4892 284.5,18.5C 285.107,14.5107 285.773,10.5107 286.5,6.5C 286.689,9.98512 286.689,13.6518 286.5,17.5C 290.167,17.5 293.833,17.5 297.5,17.5C 297.5,20.5 297.5,23.5 297.5,26.5C 303.537,26.1707 309.537,26.5041 315.5,27.5C 312.572,28.4841 309.572,28.8174 306.5,28.5C 306.5,34.5 306.5,40.5 306.5,46.5C 316.167,46.5 325.833,46.5 335.5,46.5C 335.768,43.8806 335.435,41.3806 334.5,39C 331.833,38.6667 329.167,38.3333 326.5,38C 329.482,37.502 332.482,37.3354 335.5,37.5C 335.833,25.5 336.167,25.5 336.5,37.5C 340.5,38.1667 340.5,38.8333 336.5,39.5C 336.5,41.8333 336.5,44.1667 336.5,46.5C 339.167,46.5 341.833,46.5 344.5,46.5C 344.5,40.5 344.5,34.5 344.5,28.5C 335.167,27.8333 335.167,27.1667 344.5,26.5C 345.167,2.5 345.833,2.5 346.5,26.5C 347.833,26.5 349.167,26.5 350.5,26.5C 350.5,33.8333 350.5,41.1667 350.5,48.5C 349.167,48.5 347.833,48.5 346.5,48.5C 345.833,72.5 345.167,72.5 344.5,48.5C 341.833,48.5 339.167,48.5 336.5,48.5C 337.547,54.6236 337.381,60.6236 336,66.5C 335.503,64.1902 335.337,61.8568 335.5,59.5C 331.833,59.5 328.167,59.5 324.5,59.5C 324.5,55.8333 324.5,52.1667 324.5,48.5C 322.167,48.5 319.833,48.5 317.5,48.5C 316.833,60.5 316.167,60.5 315.5,48.5C 312.167,48.5 308.833,48.5 305.5,48.5C 305.167,60.5 304.833,60.5 304.5,48.5C 302.167,48.5 299.833,48.5 297.5,48.5C 297.817,51.5719 297.484,54.5719 296.5,57.5C 293.242,58.4173 289.909,58.7507 286.5,58.5C 285.964,61.6981 286.631,64.3647 288.5,66.5C 284.131,69.8686 280.464,73.8686 277.5,78.5C 275.598,75.6627 274.931,72.3293 275.5,68.5C 272.5,68.5 269.5,68.5 266.5,68.5C 266.665,72.1817 266.499,75.8484 266,79.5C 263.281,78.5562 260.448,78.2229 257.5,78.5C 256.833,89.1667 256.167,89.1667 255.5,78.5C 252.5,78.5 249.5,78.5 246.5,78.5C 246.966,84.491 247.299,90.491 247.5,96.5C 250.5,96.5 253.5,96.5 256.5,96.5C 256.336,93.8127 256.503,91.146 257,88.5C 257.498,91.4816 257.665,94.4816 257.5,97.5C 260.167,97.5 262.833,97.5 265.5,97.5C 265.335,94.4816 265.502,91.4816 266,88.5C 266.497,91.146 266.664,93.8127 266.5,96.5C 270.167,96.5 273.833,96.5 277.5,96.5C 277.5,99.8333 277.5,103.167 277.5,106.5C 280.119,106.768 282.619,106.435 285,105.5C 285.498,102.518 285.665,99.5184 285.5,96.5C 288.211,96.8151 290.544,96.1484 292.5,94.5C 292.5,95.5 292.5,96.5 292.5,97.5C 294.292,97.634 295.958,97.3007 297.5,96.5C 294.316,98.4136 290.649,99.0803 286.5,98.5C 286.5,101.167 286.5,103.833 286.5,106.5C 290.484,106.281 294.318,106.281 298,106.5C 298.232,105.263 298.732,104.263 299.5,103.5C 299.5,105.167 299.5,106.833 299.5,108.5C 292.379,107.816 285.046,107.483 277.5,107.5C 277.5,111.5 277.5,115.5 277.5,119.5C 270.946,117.361 264.28,115.528 257.5,114C 253.833,111.667 250.167,109.333 246.5,107C 221.074,97.95 196.407,87.2833 172.5,75C 168.305,73.0036 164.305,73.1703 160.5,75.5C 159.571,74.3112 159.238,72.9778 159.5,71.5C 157.516,71.3832 155.85,72.0499 154.5,73.5C 152.546,77.766 149.879,81.4326 146.5,84.5C 146.739,82.5328 146.406,80.6995 145.5,79C 142.77,78.2716 140.103,78.4383 137.5,79.5C 136.509,75.5546 136.176,71.5546 136.5,67.5C 125.833,67.1667 125.833,66.8333 136.5,66.5C 136.5,64.1667 136.5,61.8333 136.5,59.5C 130.484,59.4075 124.484,59.0742 118.5,58.5C 118.813,61.2469 118.48,63.9135 117.5,66.5C 116.526,64.2573 116.192,61.924 116.5,59.5C 110.833,59.5 105.167,59.5 99.5,59.5C 99.0343,65.491 98.701,71.491 98.5,77.5C 101.448,77.7771 104.281,77.4438 107,76.5C 107.5,77 108,77.5 108.5,78C 108.029,84.0769 108.029,90.2436 108.5,96.5C 114.509,96.701 120.509,97.0343 126.5,97.5C 126.665,94.4816 126.498,91.4816 126,88.5C 123.595,87.7256 121.095,87.2256 118.5,87C 121.146,86.5026 123.813,86.3359 126.5,86.5C 126.833,77.1667 127.167,77.1667 127.5,86.5C 133.167,86.5 138.833,86.5 144.5,86.5C 141.689,90.1593 139.022,93.9927 136.5,98C 133.833,98.3333 131.167,98.6667 128.5,99C 120.843,103.83 113.176,108.663 105.5,113.5C 104.92,119.913 104.087,126.247 103,132.5C 102.752,127.437 102.085,122.437 101,117.5C 100.184,116.177 99.0174,115.511 97.5,115.5C 96.1667,109.833 96.1667,104.167 97.5,98.5C 91.4632,98.8293 85.4632,98.4959 79.5,97.5C 81.7427,96.5258 84.076,96.1924 86.5,96.5C 86.8333,85.8333 87.1667,85.8333 87.5,96.5C 90.8333,96.5 94.1667,96.5 97.5,96.5C 97.5,90.5 97.5,84.5 97.5,78.5C 94.5,78.5 91.5,78.5 88.5,78.5C 87.8333,89.1667 87.1667,89.1667 86.5,78.5C 80.5989,79.3636 74.5989,79.3636 68.5,78.5C 68.8134,81.2469 68.48,83.9135 67.5,86.5C 66.5258,84.2573 66.1924,81.924 66.5,79.5C 64.2646,79.2053 62.2646,79.5386 60.5,80.5C 59.2618,79.5876 57.9285,79.4209 56.5,80C 54.7811,81.8705 53.7811,84.0372 53.5,86.5C 59.3632,84.1492 60.0299,85.6492 55.5,91C 47.7423,91.2444 45.9089,88.0778 50,81.5C 53.0944,81.2072 54.5944,79.5406 54.5,76.5C 52.3453,76.372 50.3453,76.872 48.5,78C 46.432,80.6418 44.7653,83.4752 43.5,86.5C 41.5,86.5 39.5,86.5 37.5,86.5C 37.5,83.5 37.5,80.5 37.5,77.5C 40.5,77.5 43.5,77.5 46.5,77.5C 46.5,71.5 46.5,65.5 46.5,59.5C 44.1667,59.5 41.8333,59.5 39.5,59.5C 39.5,61.8333 39.5,64.1667 39.5,66.5C 35.8333,66.5 32.1667,66.5 28.5,66.5C 28.5,64.1667 28.5,61.8333 28.5,59.5C 25.5,59.5 22.5,59.5 19.5,59.5C 19.5,61.8333 19.5,64.1667 19.5,66.5C 21.8333,66.5 24.1667,66.5 26.5,66.5C 26.5,70.1667 26.5,73.8333 26.5,77.5C 20.5,77.5 14.5,77.5 8.5,77.5C 8.5,71.1667 8.5,64.8333 8.5,58.5C 11.7131,58.81 14.7131,58.4767 17.5,57.5C 20.5,57.5 23.5,57.5 26.5,57.5C 26.5,54.5 26.5,51.5 26.5,48.5C 24.1667,48.5 21.8333,48.5 19.5,48.5C 19.5,45.5 19.5,42.5 19.5,39.5C 22.5,39.5 25.5,39.5 28.5,39.5C 28.5,41.8333 28.5,44.1667 28.5,46.5C 31.5,46.5 34.5,46.5 37.5,46.5C 37.5,37.5 37.5,28.5 37.5,19.5C 22.8333,18.8333 22.8333,18.1667 37.5,17.5C 37.5,14.5 37.5,11.5 37.5,8.5C 34.4281,8.81741 31.4281,8.48408 28.5,7.5C 34.5,6.16667 40.5,6.16667 46.5,7.5C 44.2573,8.47423 41.924,8.80756 39.5,8.5C 39.5,11.5 39.5,14.5 39.5,17.5C 48.8333,18.1667 48.8333,18.8333 39.5,19.5C 39.5,21.8333 39.5,24.1667 39.5,26.5C 42.5,26.5 45.5,26.5 48.5,26.5C 48.5,30.1667 48.5,33.8333 48.5,37.5C 51.5,37.5 54.5,37.5 57.5,37.5C 58.1667,25.5 58.8333,25.5 59.5,37.5C 61.8333,37.5 64.1667,37.5 66.5,37.5C 66.5,30.8333 66.5,24.1667 66.5,17.5C 73.1667,17.5 79.8333,17.5 86.5,17.5C 86.5,11.5 86.5,5.5 86.5,-0.5 Z"/></g>
<g><path style="opacity:1" fill="#f4f4f4" d="M 158.5,48.5 C 160.833,48.5 163.167,48.5 165.5,48.5C 166.167,60.5 166.833,60.5 167.5,48.5C 170.5,48.5 173.5,48.5 176.5,48.5C 177.167,60.5 177.833,60.5 178.5,48.5C 180.833,48.5 183.167,48.5 185.5,48.5C 186.167,60.5 186.833,60.5 187.5,48.5C 190.5,48.5 193.5,48.5 196.5,48.5C 197.167,60.5 197.833,60.5 198.5,48.5C 200.833,48.5 203.167,48.5 205.5,48.5C 205.171,54.5368 205.504,60.5368 206.5,66.5C 207.474,64.2573 207.808,61.924 207.5,59.5C 213.509,59.299 219.509,58.9657 225.5,58.5C 225.187,61.2469 225.52,63.9135 226.5,66.5C 227.474,64.2573 227.808,61.924 227.5,59.5C 233.509,59.299 239.509,58.9657 245.5,58.5C 245.5,61.1667 245.5,63.8333 245.5,66.5C 234.833,67.1667 234.833,67.8333 245.5,68.5C 245.5,71.5 245.5,74.5 245.5,77.5C 232.775,77.4935 220.109,77.4935 207.5,77.5C 207.817,74.4281 207.484,71.4281 206.5,68.5C 205.52,71.0865 205.187,73.7531 205.5,76.5C 203.167,76.5 200.833,76.5 198.5,76.5C 198.5,73.1667 198.5,69.8333 198.5,66.5C 194.833,66.5 191.167,66.5 187.5,66.5C 187.663,64.1432 187.497,61.8098 187,59.5C 187.311,66.2844 184.311,68.2844 178,65.5C 177.667,63.5 177.333,61.5 177,59.5C 176.503,61.8098 176.337,64.1432 176.5,66.5C 166.833,66.5 157.167,66.5 147.5,66.5C 147.5,64.1667 147.5,61.8333 147.5,59.5C 156.5,61.1667 160.167,57.5 158.5,48.5 Z"/></g>
<g><path style="opacity:1" fill="#111111" d="M 66.5,57.5 C 71.0087,59.1646 74.5087,62.1646 77,66.5C 79.9789,64.3555 82.8122,62.0222 85.5,59.5C 86.5,59.8333 87.1667,60.5 87.5,61.5C 83.8398,64.9908 80.0065,68.3242 76,71.5C 72.4331,68.0226 69.0998,64.3559 66,60.5C 65.5304,59.4232 65.6971,58.4232 66.5,57.5 Z"/></g>
<g><path style="opacity:1" fill="#0f0f0f" d="M 258.5,44.5 C 266.685,43.9044 271.351,47.5711 272.5,55.5C 269.612,55.7804 268.112,54.4471 268,51.5C 264.546,46.4113 261.213,46.4113 258,51.5C 257.196,55.6274 258.863,58.2941 263,59.5C 263.5,59.1667 264,58.8333 264.5,58.5C 263.833,57.5 263.167,56.5 262.5,55.5C 265.965,54.0914 268.299,55.2581 269.5,59C 269.241,60.2613 268.574,61.2613 267.5,62C 260.153,63.4738 255.487,60.6405 253.5,53.5C 253.904,49.7712 255.571,46.7712 258.5,44.5 Z"/></g>
<g><path style="opacity:1" fill="#0f0f0f" d="M 92.5,37.5 C 94.5,37.5 96.5,37.5 98.5,37.5C 107.814,47.2259 105.814,53.5592 92.5,56.5C 86.6282,54.0899 84.4615,49.7565 86,43.5C 88.0627,41.2659 90.2294,39.2659 92.5,37.5 Z"/></g>
<g><path style="opacity:1" fill="#e2e2e2" d="M 92.5,41.5 C 98.7872,41.9545 100.787,45.1211 98.5,51C 93.1937,53.7154 90.1937,52.0488 89.5,46C 89.5572,43.7911 90.5572,42.2911 92.5,41.5 Z"/></g>
<g><path style="opacity:1" fill="#f3f3f3" d="M 88.5,-0.5 C 140.833,-0.5 193.167,-0.5 245.5,-0.5C 245.334,5.50924 245.501,11.5092 246,17.5C 246.498,14.5184 246.665,11.5184 246.5,8.5C 249.5,8.5 252.5,8.5 255.5,8.5C 255.5,11.5 255.5,14.5 255.5,17.5C 244.833,18.1667 244.833,18.8333 255.5,19.5C 255.5,21.8333 255.5,24.1667 255.5,26.5C 246.167,26.5 236.833,26.5 227.5,26.5C 227.5,24.1667 227.5,21.8333 227.5,19.5C 238.167,18.8333 238.167,18.1667 227.5,17.5C 229.179,8.48765 225.513,5.15432 216.5,7.5C 207.487,5.15432 203.821,8.48765 205.5,17.5C 201.5,17.5 197.5,17.5 193.5,17.5C 188.819,16.2376 184.152,16.2376 179.5,17.5C 176.5,17.5 173.5,17.5 170.5,17.5C 169.817,15.8235 168.483,15.1568 166.5,15.5C 166.5,21.1667 166.5,26.8333 166.5,32.5C 167.833,32.5 169.167,32.5 170.5,32.5C 171.434,31.4324 171.768,30.099 171.5,28.5C 173.167,28.5 174.833,28.5 176.5,28.5C 176.5,31.5 176.5,34.5 176.5,37.5C 164.5,38.1667 164.5,38.8333 176.5,39.5C 176.5,41.8333 176.5,44.1667 176.5,46.5C 170.5,46.5 164.5,46.5 158.5,46.5C 157.833,37.1667 157.167,37.1667 156.5,46.5C 153.428,46.1826 150.428,46.5159 147.5,47.5C 146.583,50.7577 146.249,54.091 146.5,57.5C 143.5,57.5 140.5,57.5 137.5,57.5C 137.167,45.5 136.833,45.5 136.5,57.5C 130.167,57.5 123.833,57.5 117.5,57.5C 117.281,53.5156 117.281,49.6823 117.5,46C 115.942,45.79 114.609,45.29 113.5,44.5C 118.41,44.7592 122.41,43.0925 125.5,39.5C 127.414,36.3157 128.08,32.649 127.5,28.5C 130.5,28.5 133.5,28.5 136.5,28.5C 137.167,43.1667 137.833,43.1667 138.5,28.5C 139.833,28.5 141.167,28.5 142.5,28.5C 142.263,29.791 142.596,30.791 143.5,31.5C 143.147,33.6348 143.98,34.9681 146,35.5C 149.842,34.7207 153.675,33.8873 157.5,33C 158.667,32.5 159.5,31.6667 160,30.5C 159.247,26.9976 158.581,23.3309 158,19.5C 157.5,19 157,18.5 156.5,18C 153.518,17.502 150.518,17.3354 147.5,17.5C 134.5,17.5 121.5,17.5 108.5,17.5C 108.817,14.4281 108.484,11.4281 107.5,8.5C 106.504,14.4632 106.171,20.4632 106.5,26.5C 97.1667,27.1667 97.1667,27.8333 106.5,28.5C 106.5,31.5 106.5,34.5 106.5,37.5C 103.833,37.5 101.167,37.5 98.5,37.5C 96.5,37.5 94.5,37.5 92.5,37.5C 91.1667,37.5 89.8333,37.5 88.5,37.5C 88.5,34.5 88.5,31.5 88.5,28.5C 100.5,27.8333 100.5,27.1667 88.5,26.5C 88.5,20.1667 88.5,13.8333 88.5,7.5C 111.167,7.16667 111.167,6.83333 88.5,6.5C 88.5,4.16667 88.5,1.83333 88.5,-0.5 Z"/></g>
<g><path style="opacity:1" fill="#0f0f0f" d="M 237.5,31.5 C 242.242,31.1364 246.408,32.4698 250,35.5C 252.399,40.4398 251.565,44.7732 247.5,48.5C 242.381,50.3159 237.881,49.3159 234,45.5C 231.432,39.9094 232.599,35.2427 237.5,31.5 Z"/></g>
<g><path style="opacity:1" fill="#ececec" d="M 239.5,35.5 C 247.452,35.5721 249.119,38.7387 244.5,45C 236.017,45.6188 234.35,42.4521 239.5,35.5 Z"/></g>
<g><path style="opacity:1" fill="#0b0b0b" d="M 125.5,39.5 C 122.41,43.0925 118.41,44.7592 113.5,44.5C 107.936,41.9359 106.102,37.6026 108,31.5C 111.034,28.9002 114.534,27.2335 118.5,26.5C 121.189,26.5454 122.523,27.8787 122.5,30.5C 119.813,30.3359 117.146,30.5026 114.5,31C 111.694,32.3051 110.86,34.4718 112,37.5C 112.869,40.3941 114.702,41.5608 117.5,41C 122.624,38.7582 122.79,37.2582 118,36.5C 117.383,35.5509 117.549,34.7175 118.5,34C 120.74,33.023 123.073,32.523 125.5,32.5C 125.5,34.8333 125.5,37.1667 125.5,39.5 Z"/></g>
<g><path style="opacity:1" fill="#121212" d="M 216.5,21.5 C 218.722,21.5587 219.722,22.7253 219.5,25C 218.422,28.5411 217.588,32.0411 217,35.5C 220.005,37.0015 223.171,38.0015 226.5,38.5C 226.5,39.5 226.5,40.5 226.5,41.5C 221.414,41.0823 216.58,39.7489 212,37.5C 212.368,31.8911 213.868,26.5578 216.5,21.5 Z"/></g>
<g><path style="opacity:1" fill="#fdfdfd" d="M 171.5,19.5 C 173.167,19.5 174.833,19.5 176.5,19.5C 176.5,21.8333 176.5,24.1667 176.5,26.5C 174.833,26.5 173.167,26.5 171.5,26.5C 171.5,24.1667 171.5,21.8333 171.5,19.5 Z"/></g>
<g><path style="opacity:1" fill="#0c0c0c" d="M 147.5,17.5 C 150.518,17.3354 153.518,17.502 156.5,18C 157,18.5 157.5,19 158,19.5C 158.581,23.3309 159.247,26.9976 160,30.5C 159.5,31.6667 158.667,32.5 157.5,33C 153.675,33.8873 149.842,34.7207 146,35.5C 143.98,34.9681 143.147,33.6348 143.5,31.5C 143.156,27.7717 142.49,24.1051 141.5,20.5C 143.282,19.0159 145.282,18.0159 147.5,17.5 Z"/></g>
<g><path style="opacity:1" fill="#e0e0e0" d="M 147.5,27.5 C 150.167,27.5 152.833,27.5 155.5,27.5C 155.5,28.5 155.5,29.5 155.5,30.5C 152.873,31.0916 150.206,31.4249 147.5,31.5C 147.5,30.1667 147.5,28.8333 147.5,27.5 Z"/></g>
<g><path style="opacity:1" fill="#d9d9d9" d="M 150.5,20.5 C 152.346,20.2222 153.68,20.8888 154.5,22.5C 152.149,24.2289 149.482,24.8956 146.5,24.5C 146.5,23.5 146.5,22.5 146.5,21.5C 148.099,21.7678 149.432,21.4345 150.5,20.5 Z"/></g>
<g><path style="opacity:1" fill="#0e0e0e" d="M 193.5,17.5 C 194.942,18.8195 195.608,20.4862 195.5,22.5C 194.127,22.6567 192.793,22.49 191.5,22C 189.316,19.6321 186.649,18.9654 183.5,20C 179.566,27.9609 181.899,30.7942 190.5,28.5C 189.675,27.6143 188.675,27.281 187.5,27.5C 187.5,26.5 187.5,25.5 187.5,24.5C 190.167,24.5 192.833,24.5 195.5,24.5C 195.78,27.2724 195.113,29.7724 193.5,32C 179.731,35.7328 175.064,30.8994 179.5,17.5C 184.152,16.2376 188.819,16.2376 193.5,17.5 Z"/></g>
<g><path style="opacity:1" fill="#060606" d="M 170.5,17.5 C 170.5,22.5 170.5,27.5 170.5,32.5C 169.167,32.5 167.833,32.5 166.5,32.5C 166.5,26.8333 166.5,21.1667 166.5,15.5C 168.483,15.1568 169.817,15.8235 170.5,17.5 Z"/></g>
<g><path style="opacity:1" fill="#f2f2f2" d="M 146.5,84.5 C 146.167,85.5 145.5,86.1667 144.5,86.5C 138.833,86.5 133.167,86.5 127.5,86.5C 127.167,77.1667 126.833,77.1667 126.5,86.5C 123.813,86.3359 121.146,86.5026 118.5,87C 121.095,87.2256 123.595,87.7256 126,88.5C 126.498,91.4816 126.665,94.4816 126.5,97.5C 120.509,97.0343 114.509,96.701 108.5,96.5C 108.029,90.2436 108.029,84.0769 108.5,78C 108,77.5 107.5,77 107,76.5C 104.281,77.4438 101.448,77.7771 98.5,77.5C 98.701,71.491 99.0343,65.491 99.5,59.5C 105.167,59.5 110.833,59.5 116.5,59.5C 116.192,61.924 116.526,64.2573 117.5,66.5C 118.48,63.9135 118.813,61.2469 118.5,58.5C 124.484,59.0742 130.484,59.4075 136.5,59.5C 136.5,61.8333 136.5,64.1667 136.5,66.5C 125.833,66.8333 125.833,67.1667 136.5,67.5C 136.176,71.5546 136.509,75.5546 137.5,79.5C 140.103,78.4383 142.77,78.2716 145.5,79C 146.406,80.6995 146.739,82.5328 146.5,84.5 Z"/></g>
<g><path style="opacity:1" fill="#f2f2f2" d="M 97.5,115.5 C 96.1667,115.833 94.8333,116.167 93.5,116.5C 91.5,116.5 89.5,116.5 87.5,116.5C 87.1667,105.833 86.8333,105.833 86.5,116.5C 80.5,116.5 74.5,116.5 68.5,116.5C 68.8226,112.774 68.4892,109.107 67.5,105.5C 64.9159,106.393 62.2492,106.726 59.5,106.5C 59.5,101.833 59.5,97.1667 59.5,92.5C 60.7485,90.3296 61.7485,87.9963 62.5,85.5C 62.0976,83.6998 61.4309,82.0332 60.5,80.5C 62.2646,79.5386 64.2646,79.2053 66.5,79.5C 66.1924,81.924 66.5258,84.2573 67.5,86.5C 68.48,83.9135 68.8134,81.2469 68.5,78.5C 74.5989,79.3636 80.5989,79.3636 86.5,78.5C 87.1667,89.1667 87.8333,89.1667 88.5,78.5C 91.5,78.5 94.5,78.5 97.5,78.5C 97.5,84.5 97.5,90.5 97.5,96.5C 94.1667,96.5 90.8333,96.5 87.5,96.5C 87.1667,85.8333 86.8333,85.8333 86.5,96.5C 84.076,96.1924 81.7427,96.5258 79.5,97.5C 85.4632,98.4959 91.4632,98.8293 97.5,98.5C 96.1667,104.167 96.1667,109.833 97.5,115.5 Z"/></g>
<g><path style="opacity:1" fill="#111111" d="M 299.5,108.5 C 299.5,106.833 299.5,105.167 299.5,103.5C 308.651,95.372 314.651,97.372 317.5,109.5C 317.821,112.512 316.488,113.845 313.5,113.5C 314.1,109.484 313.1,105.984 310.5,103C 303.73,102.587 301.563,105.42 304,111.5C 304.689,112.357 305.522,113.023 306.5,113.5C 307.096,112.284 307.263,110.951 307,109.5C 307.718,108.549 308.551,108.383 309.5,109C 311.202,111.235 312.202,113.735 312.5,116.5C 305.192,118.881 300.859,116.214 299.5,108.5 Z"/></g>
<g><path style="opacity:1" fill="#e7e7e7" d="M 186.5,153.5 C 186.173,144.318 186.507,135.318 187.5,126.5C 187.334,134.84 187.5,143.173 188,151.5C 188.263,156.017 189.263,160.351 191,164.5C 192.921,141.927 194.254,119.261 195,96.5C 204.224,96.5936 212.557,99.5936 220,105.5C 219.45,119.878 218.117,134.211 216,148.5C 215.667,148.833 215.333,149.167 215,149.5C 213.783,138.215 213.116,126.882 213,115.5C 212.804,113.714 211.971,112.381 210.5,111.5C 209.104,113.972 208.27,116.638 208,119.5C 206.338,130.126 205.005,140.793 204,151.5C 202.217,138.338 201.217,125.005 201,111.5C 199.274,100.896 197.607,100.896 196,111.5C 195.667,129.833 195.333,148.167 195,166.5C 192.763,168.204 190.263,169.204 187.5,169.5C 186.658,164.213 186.324,158.88 186.5,153.5 Z"/></g>
<g><path style="opacity:1" fill="#0c0c0c" d="M 41.5,126.5 C 40.8333,126.5 40.5,126.833 40.5,127.5C 40.5,128.167 40.1667,128.5 39.5,128.5C 38.8333,128.167 38.1667,127.833 37.5,127.5C 36.8333,127.5 36.1667,127.5 35.5,127.5C 33.8185,125.992 31.8185,124.992 29.5,124.5C 28.2921,123.766 26.9587,123.433 25.5,123.5C 25.7777,119.268 26.9444,115.268 29,111.5C 30.1171,109.876 31.6171,108.876 33.5,108.5C 37.0863,109.676 40.5863,111.009 44,112.5C 44.6667,114.833 44.6667,117.167 44,119.5C 42.5886,121.65 41.7553,123.984 41.5,126.5 Z"/></g>
<g><path style="opacity:1" fill="#f0f0f0" d="M 350.5,48.5 C 350.5,107.5 350.5,166.5 350.5,225.5C 349.167,225.5 347.833,225.5 346.5,225.5C 346.829,219.463 346.496,213.463 345.5,207.5C 344.505,213.128 344.171,218.794 344.5,224.5C 342.167,224.5 339.833,224.5 337.5,224.5C 337.558,221.336 338.224,218.336 339.5,215.5C 335.165,215.917 330.832,216.417 326.5,217C 329.482,217.498 332.482,217.665 335.5,217.5C 335.5,220.167 335.5,222.833 335.5,225.5C 323.5,226.167 323.5,226.833 335.5,227.5C 334.167,233.5 334.167,239.5 335.5,245.5C 328.745,246.123 322.412,245.456 316.5,243.5C 316.5,243.167 316.5,242.833 316.5,242.5C 317.239,239.348 317.239,236.015 316.5,232.5C 318.39,232.703 319.89,232.037 321,230.5C 322.807,226.244 324.307,221.911 325.5,217.5C 322.557,217.02 319.89,216.02 317.5,214.5C 316.883,208.402 317.55,202.735 319.5,197.5C 322.385,197.806 325.052,197.473 327.5,196.5C 329.61,195.547 330.777,193.881 331,191.5C 333.072,181.905 329.238,177.738 319.5,179C 316.887,180.107 315.22,181.94 314.5,184.5C 315.053,179.518 315.387,174.518 315.5,169.5C 318.938,172.393 322.938,173.227 327.5,172C 329.333,171.5 330.5,170.333 331,168.5C 333.95,157.38 329.783,152.713 318.5,154.5C 317.512,149.36 317.179,144.026 317.5,138.5C 320.37,137.366 323.37,136.7 326.5,136.5C 326.5,135.167 326.5,133.833 326.5,132.5C 321.28,132.388 316.28,133.388 311.5,135.5C 311.051,138.044 311.051,140.71 311.5,143.5C 309.721,145.344 307.388,146.01 304.5,145.5C 304.5,149.167 304.5,152.833 304.5,156.5C 302.167,156.5 299.833,156.5 297.5,156.5C 296.833,144.5 296.167,144.5 295.5,156.5C 292.5,156.5 289.5,156.5 286.5,156.5C 286.167,144.5 285.833,144.5 285.5,156.5C 283.833,156.5 282.167,156.5 280.5,156.5C 280.5,150.5 280.5,144.5 280.5,138.5C 282.924,138.808 285.257,138.474 287.5,137.5C 286.197,133.968 286.197,130.468 287.5,127C 285.063,125.625 282.397,125.125 279.5,125.5C 279.737,124.209 279.404,123.209 278.5,122.5C 278.443,121.391 278.11,120.391 277.5,119.5C 277.5,115.5 277.5,111.5 277.5,107.5C 285.046,107.483 292.379,107.816 299.5,108.5C 300.859,116.214 305.192,118.881 312.5,116.5C 312.202,113.735 311.202,111.235 309.5,109C 308.551,108.383 307.718,108.549 307,109.5C 307.263,110.951 307.096,112.284 306.5,113.5C 305.522,113.023 304.689,112.357 304,111.5C 301.563,105.42 303.73,102.587 310.5,103C 313.1,105.984 314.1,109.484 313.5,113.5C 316.488,113.845 317.821,112.512 317.5,109.5C 314.651,97.372 308.651,95.372 299.5,103.5C 298.732,104.263 298.232,105.263 298,106.5C 294.318,106.281 290.484,106.281 286.5,106.5C 286.5,103.833 286.5,101.167 286.5,98.5C 290.649,99.0803 294.316,98.4136 297.5,96.5C 300.262,94.2753 303.262,92.2753 306.5,90.5C 307.731,89.3493 307.731,88.1827 306.5,87C 301.189,88.1576 296.522,90.6576 292.5,94.5C 290.544,96.1484 288.211,96.8151 285.5,96.5C 285.665,99.5184 285.498,102.518 285,105.5C 282.619,106.435 280.119,106.768 277.5,106.5C 277.5,103.167 277.5,99.8333 277.5,96.5C 273.833,96.5 270.167,96.5 266.5,96.5C 266.664,93.8127 266.497,91.146 266,88.5C 265.502,91.4816 265.335,94.4816 265.5,97.5C 262.833,97.5 260.167,97.5 257.5,97.5C 257.665,94.4816 257.498,91.4816 257,88.5C 256.503,91.146 256.336,93.8127 256.5,96.5C 253.5,96.5 250.5,96.5 247.5,96.5C 247.299,90.491 246.966,84.491 246.5,78.5C 249.5,78.5 252.5,78.5 255.5,78.5C 256.167,89.1667 256.833,89.1667 257.5,78.5C 260.448,78.2229 263.281,78.5562 266,79.5C 266.499,75.8484 266.665,72.1817 266.5,68.5C 269.5,68.5 272.5,68.5 275.5,68.5C 274.931,72.3293 275.598,75.6627 277.5,78.5C 280.666,80.8337 283.333,83.6671 285.5,87C 290.128,89.2294 292.794,87.7294 293.5,82.5C 297.487,82.3482 298.987,80.3482 298,76.5C 296,73.8333 294,71.1667 292,68.5C 291.184,67.1772 290.017,66.5106 288.5,66.5C 286.631,64.3647 285.964,61.6981 286.5,58.5C 289.909,58.7507 293.242,58.4173 296.5,57.5C 297.484,54.5719 297.817,51.5719 297.5,48.5C 299.833,48.5 302.167,48.5 304.5,48.5C 304.833,60.5 305.167,60.5 305.5,48.5C 308.833,48.5 312.167,48.5 315.5,48.5C 316.167,60.5 316.833,60.5 317.5,48.5C 319.833,48.5 322.167,48.5 324.5,48.5C 324.5,52.1667 324.5,55.8333 324.5,59.5C 328.167,59.5 331.833,59.5 335.5,59.5C 335.337,61.8568 335.503,64.1902 336,66.5C 337.381,60.6236 337.547,54.6236 336.5,48.5C 339.167,48.5 341.833,48.5 344.5,48.5C 345.167,72.5 345.833,72.5 346.5,48.5C 347.833,48.5 349.167,48.5 350.5,48.5 Z"/></g>
<g><path style="opacity:1" fill="#101010" d="M 297.5,96.5 C 295.958,97.3007 294.292,97.634 292.5,97.5C 292.5,96.5 292.5,95.5 292.5,94.5C 296.522,90.6576 301.189,88.1576 306.5,87C 307.731,88.1827 307.731,89.3493 306.5,90.5C 303.262,92.2753 300.262,94.2753 297.5,96.5 Z"/></g>
<g><path style="opacity:1" fill="#d4d4d4" d="M 283.5,76.5 C 287.573,76.9464 289.573,79.2798 289.5,83.5C 286.737,83.2562 284.571,81.9229 283,79.5C 282.53,78.4232 282.697,77.4232 283.5,76.5 Z"/></g>
<g><path style="opacity:1" fill="#d7d7d7" d="M 288.5,72.5 C 293.131,73.1229 294.631,75.4562 293,79.5C 291.167,77.6667 289.333,75.8333 287.5,74C 288.056,73.6174 288.389,73.1174 288.5,72.5 Z"/></g>
<g><path style="opacity:1" fill="#606060" d="M 187.5,126.5 C 186.507,135.318 186.173,144.318 186.5,153.5C 185.341,143.008 185.175,132.341 186,121.5C 187.269,122.905 187.769,124.571 187.5,126.5 Z"/></g>
<g><path style="opacity:1" fill="#fbfbfb" d="M 277.5,127.5 C 280.167,127.5 282.833,127.5 285.5,127.5C 285.5,130.5 285.5,133.5 285.5,136.5C 283.379,136.675 281.379,136.341 279.5,135.5C 279.5,134.833 279.167,134.5 278.5,134.5C 277.659,132.621 277.325,130.621 277.5,128.5C 277.5,128.167 277.5,127.833 277.5,127.5 Z"/></g>
<g><path style="opacity:1" fill="#d1d1d1" d="M 277.5,128.5 C 277.325,130.621 277.659,132.621 278.5,134.5C 274.9,135.044 271.4,136.044 268,137.5C 250.239,148.295 232.739,159.462 215.5,171C 213.598,172.301 211.598,172.968 209.5,173C 230.343,155.41 253.01,140.576 277.5,128.5 Z"/></g>
<g><path style="opacity:1" fill="#0a0a0a" d="M 317.5,138.5 C 316.5,138.5 315.5,138.5 314.5,138.5C 314.846,141.885 315.512,145.218 316.5,148.5C 316.457,149.416 316.124,150.083 315.5,150.5C 314.508,150.672 313.842,150.338 313.5,149.5C 313.125,147.302 312.458,145.302 311.5,143.5C 311.051,140.71 311.051,138.044 311.5,135.5C 316.28,133.388 321.28,132.388 326.5,132.5C 326.5,133.833 326.5,135.167 326.5,136.5C 323.37,136.7 320.37,137.366 317.5,138.5 Z"/></g>
<g><path style="opacity:1" fill="#f0f0f0" d="M 43.5,86.5 C 46.1498,95.8244 51.4832,97.8244 59.5,92.5C 59.5,97.1667 59.5,101.833 59.5,106.5C 62.2492,106.726 64.9159,106.393 67.5,105.5C 68.4892,109.107 68.8226,112.774 68.5,116.5C 65.5,116.5 62.5,116.5 59.5,116.5C 59.8134,113.753 59.48,111.086 58.5,108.5C 57.5041,114.463 57.1707,120.463 57.5,126.5C 52.1667,126.5 46.8333,126.5 41.5,126.5C 41.7553,123.984 42.5886,121.65 44,119.5C 44.6667,117.167 44.6667,114.833 44,112.5C 40.5863,111.009 37.0863,109.676 33.5,108.5C 31.6171,108.876 30.1171,109.876 29,111.5C 26.9444,115.268 25.7777,119.268 25.5,123.5C 26.9587,123.433 28.2921,123.766 29.5,124.5C 27.9997,128.659 26.9997,132.993 26.5,137.5C 30.1073,138.489 33.774,138.823 37.5,138.5C 37.5,141.167 37.5,143.833 37.5,146.5C 25.5,146.833 25.5,147.167 37.5,147.5C 37.5,150.5 37.5,153.5 37.5,156.5C 27.8333,156.5 18.1667,156.5 8.5,156.5C 8.5,153.5 8.5,150.5 8.5,147.5C 11.5719,147.817 14.5719,147.484 17.5,146.5C 14.2317,145.513 10.8984,145.18 7.5,145.5C 7.5,152.167 7.5,158.833 7.5,165.5C 4.83333,165.5 2.16667,165.5 -0.5,165.5C -0.5,133.167 -0.5,100.833 -0.5,68.5C 2.16667,68.5 4.83333,68.5 7.5,68.5C 7.33385,74.5092 7.50051,80.5092 8,86.5C 8.49742,83.854 8.66409,81.1873 8.5,78.5C 11.5,78.5 14.5,78.5 17.5,78.5C 18.1667,89.1667 18.8333,89.1667 19.5,78.5C 21.8333,78.5 24.1667,78.5 26.5,78.5C 26.1866,81.2469 26.52,83.9135 27.5,86.5C 27.8333,85 28.1667,83.5 28.5,82C 28.4313,80.0145 27.7647,78.5145 26.5,77.5C 26.5,73.8333 26.5,70.1667 26.5,66.5C 24.1667,66.5 21.8333,66.5 19.5,66.5C 19.5,64.1667 19.5,61.8333 19.5,59.5C 22.5,59.5 25.5,59.5 28.5,59.5C 28.5,61.8333 28.5,64.1667 28.5,66.5C 32.1667,66.5 35.8333,66.5 39.5,66.5C 39.5,64.1667 39.5,61.8333 39.5,59.5C 41.8333,59.5 44.1667,59.5 46.5,59.5C 46.5,65.5 46.5,71.5 46.5,77.5C 43.5,77.5 40.5,77.5 37.5,77.5C 37.5,80.5 37.5,83.5 37.5,86.5C 39.5,86.5 41.5,86.5 43.5,86.5 Z"/></g>
<g><path style="opacity:1" fill="#cfcfcf" d="M 38.5,114.5 C 41.0764,114.722 41.9098,116.055 41,118.5C 40.313,121.426 38.4797,122.759 35.5,122.5C 35.9402,119.62 36.9402,116.954 38.5,114.5 Z"/></g>
<g><path style="opacity:1" fill="#d5d5d5" d="M 32.5,112.5 C 33.6946,112.866 34.3613,113.699 34.5,115C 33.8883,117.058 32.8883,118.891 31.5,120.5C 30.5,120.167 29.8333,119.5 29.5,118.5C 30.5133,116.473 31.5133,114.473 32.5,112.5 Z"/></g>
<g><path style="opacity:1" fill="#111111" d="M 35.5,96.5 C 40.3203,97.904 44.987,99.904 49.5,102.5C 50.8899,104.495 50.3899,105.828 48,106.5C 43.3638,104.683 39.0305,102.349 35,99.5C 34.5304,98.4232 34.6971,97.4232 35.5,96.5 Z"/></g>
<g><path style="opacity:1" fill="#eaeaea" d="M 128.5,120.5 C 129.167,120.167 129.833,119.833 130.5,119.5C 131.405,127.222 132.571,134.889 134,142.5C 136.634,135.399 138.634,128.066 140,120.5C 140.43,128.188 141.097,135.854 142,143.5C 142.308,144.308 142.808,144.975 143.5,145.5C 144.281,144.271 144.781,142.938 145,141.5C 145.611,126.164 146.278,110.831 147,95.5C 147.424,93.3855 148.591,92.5521 150.5,93C 151.406,94.6995 151.739,96.5328 151.5,98.5C 150.167,98.5 148.833,98.5 147.5,98.5C 147.5,100.833 147.5,103.167 147.5,105.5C 148.833,105.5 150.167,105.5 151.5,105.5C 151.5,103.5 151.5,101.5 151.5,99.5C 152.987,108.98 154.154,118.647 155,128.5C 156.418,131.001 157.418,130.668 158,127.5C 158.6,114.83 159.267,102.163 160,89.5C 160.541,83.3366 161.875,83.0033 164,88.5C 165.752,112.5 165.918,136.5 164.5,160.5C 150.643,156.74 137.309,151.573 124.5,145C 121.533,142.9 119.7,140.066 119,136.5C 118.333,129.167 118.333,121.833 119,114.5C 119.333,114.167 119.667,113.833 120,113.5C 121.346,122.406 123.513,131.073 126.5,139.5C 127.281,138.271 127.781,136.938 128,135.5C 128.499,130.511 128.666,125.511 128.5,120.5 Z"/></g>
<g><path style="opacity:1" fill="#9c9c9c" d="M 130.5,119.5 C 129.833,119.833 129.167,120.167 128.5,120.5C 128.372,114.547 129.039,114.213 130.5,119.5 Z"/></g>
<g><path style="opacity:1" fill="#fbfbfb" d="M 151.5,98.5 C 151.5,98.8333 151.5,99.1667 151.5,99.5C 151.5,101.5 151.5,103.5 151.5,105.5C 150.167,105.5 148.833,105.5 147.5,105.5C 147.5,103.167 147.5,100.833 147.5,98.5C 148.833,98.5 150.167,98.5 151.5,98.5 Z"/></g>
<g><path style="opacity:1" fill="#0b0b0b" d="M 318.5,154.5 C 329.783,152.713 333.95,157.38 331,168.5C 330.5,170.333 329.333,171.5 327.5,172C 322.938,173.227 318.938,172.393 315.5,169.5C 315.672,168.508 315.338,167.842 314.5,167.5C 314.5,166.833 314.5,166.167 314.5,165.5C 314.5,163.5 314.5,161.5 314.5,159.5C 315.803,157.858 317.136,156.191 318.5,154.5 Z"/></g>
<g><path style="opacity:1" fill="#d8d8d8" d="M 278.5,122.5 C 279.404,123.209 279.737,124.209 279.5,125.5C 282.397,125.125 285.063,125.625 287.5,127C 286.197,130.468 286.197,133.968 287.5,137.5C 285.257,138.474 282.924,138.808 280.5,138.5C 280.5,144.5 280.5,150.5 280.5,156.5C 282.167,156.5 283.833,156.5 285.5,156.5C 285.833,144.5 286.167,144.5 286.5,156.5C 289.5,156.5 292.5,156.5 295.5,156.5C 296.167,144.5 296.833,144.5 297.5,156.5C 299.833,156.5 302.167,156.5 304.5,156.5C 304.5,152.833 304.5,149.167 304.5,145.5C 307.388,146.01 309.721,145.344 311.5,143.5C 312.458,145.302 313.125,147.302 313.5,149.5C 311.321,148.897 309.154,148.23 307,147.5C 306.502,150.482 306.335,153.482 306.5,156.5C 309.5,156.5 312.5,156.5 315.5,156.5C 315.5,154.5 315.5,152.5 315.5,150.5C 316.124,150.083 316.457,149.416 316.5,148.5C 315.512,145.218 314.846,141.885 314.5,138.5C 315.5,138.5 316.5,138.5 317.5,138.5C 317.179,144.026 317.512,149.36 318.5,154.5C 317.136,156.191 315.803,157.858 314.5,159.5C 312.052,158.527 309.385,158.194 306.5,158.5C 306.5,160.833 306.5,163.167 306.5,165.5C 309.167,165.5 311.833,165.5 314.5,165.5C 314.5,166.167 314.5,166.833 314.5,167.5C 311.833,167.5 309.167,167.5 306.5,167.5C 306.665,170.518 306.498,173.518 306,176.5C 305.169,170.523 304.669,164.523 304.5,158.5C 302.167,158.5 299.833,158.5 297.5,158.5C 296.833,167.833 296.167,167.833 295.5,158.5C 292.5,158.5 289.5,158.5 286.5,158.5C 285.833,167.833 285.167,167.833 284.5,158.5C 282.708,158.366 281.042,158.699 279.5,159.5C 279.5,151.5 279.5,143.5 279.5,135.5C 281.379,136.341 283.379,136.675 285.5,136.5C 285.5,133.5 285.5,130.5 285.5,127.5C 282.833,127.5 280.167,127.5 277.5,127.5C 278.301,125.958 278.634,124.292 278.5,122.5 Z"/></g>
<g><path style="opacity:1" fill="#fcfcfc" d="M 313.5,149.5 C 313.842,150.338 314.508,150.672 315.5,150.5C 315.5,152.5 315.5,154.5 315.5,156.5C 312.5,156.5 309.5,156.5 306.5,156.5C 306.335,153.482 306.502,150.482 307,147.5C 309.154,148.23 311.321,148.897 313.5,149.5 Z"/></g>
<g><path style="opacity:1" fill="#111111" d="M 31.5,159.5 C 34.5978,165.116 33.9311,170.282 29.5,175C 26.5,175.667 23.5,175.667 20.5,175C 18.3563,174.208 17.023,172.708 16.5,170.5C 16.5,168.167 16.5,165.833 16.5,163.5C 16.4326,162.041 16.7659,160.708 17.5,159.5C 18.7894,157.752 20.2894,157.419 22,158.5C 20.9352,160.747 20.1018,163.247 19.5,166C 19.8485,171.09 22.5152,172.757 27.5,171C 29.6496,168.445 29.9829,165.612 28.5,162.5C 27.6143,163.325 27.281,164.325 27.5,165.5C 26.5,165.5 25.5,165.5 24.5,165.5C 24.5,162.833 24.5,160.167 24.5,157.5C 27.0786,157.394 29.412,158.061 31.5,159.5 Z"/></g>
<g><path style="opacity:1" fill="#fdfdfd" d="M 314.5,159.5 C 314.5,161.5 314.5,163.5 314.5,165.5C 311.833,165.5 309.167,165.5 306.5,165.5C 306.5,163.167 306.5,160.833 306.5,158.5C 309.385,158.194 312.052,158.527 314.5,159.5 Z"/></g>
<g><path style="opacity:1" fill="#dedede" d="M 320.5,158.5 C 327.547,157.701 329.881,160.535 327.5,167C 321.26,170.061 318.094,168.228 318,161.5C 319.045,160.627 319.878,159.627 320.5,158.5 Z"/></g>
<g><path style="opacity:1" fill="#d8d8d8" d="M 68.5,116.5 C 74.5,116.5 80.5,116.5 86.5,116.5C 86.8333,105.833 87.1667,105.833 87.5,116.5C 89.5,116.5 91.5,116.5 93.5,116.5C 91.4504,118.547 89.117,120.214 86.5,121.5C 86.5,120.5 86.5,119.5 86.5,118.5C 83.8333,118.5 81.1667,118.5 78.5,118.5C 78.1667,127.833 77.8333,127.833 77.5,118.5C 71.5,118.5 65.5,118.5 59.5,118.5C 59.5,121.5 59.5,124.5 59.5,127.5C 55.8333,127.5 52.1667,127.5 48.5,127.5C 48.5,131.167 48.5,134.833 48.5,138.5C 45.5,138.5 42.5,138.5 39.5,138.5C 39.5,140.833 39.5,143.167 39.5,145.5C 48.8333,146.167 48.8333,146.833 39.5,147.5C 39.5,151.167 39.5,154.833 39.5,158.5C 36.6146,158.194 33.9479,158.527 31.5,159.5C 29.412,158.061 27.0786,157.394 24.5,157.5C 24.5,160.167 24.5,162.833 24.5,165.5C 25.5,165.5 26.5,165.5 27.5,165.5C 27.281,164.325 27.6143,163.325 28.5,162.5C 29.9829,165.612 29.6496,168.445 27.5,171C 22.5152,172.757 19.8485,171.09 19.5,166C 20.1018,163.247 20.9352,160.747 22,158.5C 20.2894,157.419 18.7894,157.752 17.5,159.5C 14.7131,158.523 11.7131,158.19 8.5,158.5C 8.5,160.833 8.5,163.167 8.5,165.5C 11.5331,165.868 14.1998,165.202 16.5,163.5C 16.5,165.833 16.5,168.167 16.5,170.5C 15.596,169.791 15.2627,168.791 15.5,167.5C 10.1667,167.5 4.83333,167.5 -0.5,167.5C -0.5,166.833 -0.5,166.167 -0.5,165.5C 2.16667,165.5 4.83333,165.5 7.5,165.5C 7.5,158.833 7.5,152.167 7.5,145.5C 10.8984,145.18 14.2317,145.513 17.5,146.5C 14.5719,147.484 11.5719,147.817 8.5,147.5C 8.5,150.5 8.5,153.5 8.5,156.5C 18.1667,156.5 27.8333,156.5 37.5,156.5C 37.5,153.5 37.5,150.5 37.5,147.5C 25.5,147.167 25.5,146.833 37.5,146.5C 37.5,143.833 37.5,141.167 37.5,138.5C 33.774,138.823 30.1073,138.489 26.5,137.5C 26.9997,132.993 27.9997,128.659 29.5,124.5C 31.8185,124.992 33.8185,125.992 35.5,127.5C 33.1667,127.5 30.8333,127.5 28.5,127.5C 28.5,130.5 28.5,133.5 28.5,136.5C 31.5,136.5 34.5,136.5 37.5,136.5C 37.5,133.5 37.5,130.5 37.5,127.5C 38.1667,127.833 38.8333,128.167 39.5,128.5C 39.5,131.167 39.5,133.833 39.5,136.5C 41.8333,136.5 44.1667,136.5 46.5,136.5C 46.5,133.5 46.5,130.5 46.5,127.5C 44.5,127.5 42.5,127.5 40.5,127.5C 40.5,126.833 40.8333,126.5 41.5,126.5C 46.8333,126.5 52.1667,126.5 57.5,126.5C 57.1707,120.463 57.5041,114.463 58.5,108.5C 59.48,111.086 59.8134,113.753 59.5,116.5C 62.5,116.5 65.5,116.5 68.5,116.5 Z"/></g>
<g><path style="opacity:1" fill="#fcfcfc" d="M 17.5,159.5 C 16.7659,160.708 16.4326,162.041 16.5,163.5C 14.1998,165.202 11.5331,165.868 8.5,165.5C 8.5,163.167 8.5,160.833 8.5,158.5C 11.7131,158.19 14.7131,158.523 17.5,159.5 Z"/></g>
<g><path style="opacity:1" fill="#fdfdfd" d="M 40.5,127.5 C 42.5,127.5 44.5,127.5 46.5,127.5C 46.5,130.5 46.5,133.5 46.5,136.5C 44.1667,136.5 41.8333,136.5 39.5,136.5C 39.5,133.833 39.5,131.167 39.5,128.5C 40.1667,128.5 40.5,128.167 40.5,127.5 Z"/></g>
<g><path style="opacity:1" fill="#fdfdfd" d="M 35.5,127.5 C 36.1667,127.5 36.8333,127.5 37.5,127.5C 37.5,130.5 37.5,133.5 37.5,136.5C 34.5,136.5 31.5,136.5 28.5,136.5C 28.5,133.5 28.5,130.5 28.5,127.5C 30.8333,127.5 33.1667,127.5 35.5,127.5 Z"/></g>
<g><path style="opacity:1" fill="#f3f3f3" d="M 314.5,167.5 C 315.338,167.842 315.672,168.508 315.5,169.5C 315.387,174.518 315.053,179.518 314.5,184.5C 314.5,184.833 314.5,185.167 314.5,185.5C 305.5,185.5 296.5,185.5 287.5,185.5C 287.5,183.167 287.5,180.833 287.5,178.5C 290.247,178.813 292.914,178.48 295.5,177.5C 292.232,176.513 288.898,176.18 285.5,176.5C 285.665,173.482 285.498,170.482 285,167.5C 284.503,170.146 284.336,172.813 284.5,175.5C 282.833,175.5 281.167,175.5 279.5,175.5C 279.5,170.167 279.5,164.833 279.5,159.5C 281.042,158.699 282.708,158.366 284.5,158.5C 285.167,167.833 285.833,167.833 286.5,158.5C 289.5,158.5 292.5,158.5 295.5,158.5C 296.167,167.833 296.833,167.833 297.5,158.5C 299.833,158.5 302.167,158.5 304.5,158.5C 304.669,164.523 305.169,170.523 306,176.5C 306.498,173.518 306.665,170.518 306.5,167.5C 309.167,167.5 311.833,167.5 314.5,167.5 Z"/></g>
<g><path style="opacity:1" fill="#131313" d="M 327.5,196.5 C 325.952,196.179 325.285,195.179 325.5,193.5C 327.406,190.844 327.906,187.844 327,184.5C 319.641,181.703 316.807,184.036 318.5,191.5C 320.498,187.621 322.164,187.621 323.5,191.5C 322.549,192.919 322.216,194.585 322.5,196.5C 321.5,196.5 320.5,196.5 319.5,196.5C 317.326,196.25 315.659,195.25 314.5,193.5C 314.5,192.833 314.5,192.167 314.5,191.5C 314.5,189.5 314.5,187.5 314.5,185.5C 314.5,185.167 314.5,184.833 314.5,184.5C 315.22,181.94 316.887,180.107 319.5,179C 329.238,177.738 333.072,181.905 331,191.5C 330.777,193.881 329.61,195.547 327.5,196.5 Z"/></g>
<g><path style="opacity:1" fill="#fdfdfd" d="M 278.5,187.5 C 280.5,187.5 282.5,187.5 284.5,187.5C 284.5,190.5 284.5,193.5 284.5,196.5C 282.5,196.5 280.5,196.5 278.5,196.5C 278.5,194.833 278.5,193.167 278.5,191.5C 278.5,190.167 278.5,188.833 278.5,187.5 Z"/></g>
<g><path style="opacity:1" fill="#fdfdfd" d="M 314.5,191.5 C 314.5,192.167 314.5,192.833 314.5,193.5C 312.365,195.369 309.698,196.036 306.5,195.5C 306.5,192.833 306.5,190.167 306.5,187.5C 308.833,187.5 311.167,187.5 313.5,187.5C 313.232,189.099 313.566,190.432 314.5,191.5 Z"/></g>
<g><path style="opacity:1" fill="#e1e1e1" d="M 325.5,193.5 C 324.732,194.263 324.232,195.263 324,196.5C 323.506,194.866 323.34,193.199 323.5,191.5C 322.164,187.621 320.498,187.621 318.5,191.5C 316.807,184.036 319.641,181.703 327,184.5C 327.906,187.844 327.406,190.844 325.5,193.5 Z"/></g>
<g><path style="opacity:1" fill="#898989" d="M 323.5,191.5 C 323.34,193.199 323.506,194.866 324,196.5C 324.232,195.263 324.732,194.263 325.5,193.5C 325.285,195.179 325.952,196.179 327.5,196.5C 325.052,197.473 322.385,197.806 319.5,197.5C 319.5,197.167 319.5,196.833 319.5,196.5C 320.5,196.5 321.5,196.5 322.5,196.5C 322.216,194.585 322.549,192.919 323.5,191.5 Z"/></g>
<g><path style="opacity:1" fill="#ececec" d="M 197.5,245.5 C 194.167,245.5 190.833,245.5 187.5,245.5C 187.5,242.833 187.5,240.167 187.5,237.5C 199.5,236.833 199.5,236.167 187.5,235.5C 186.833,224.833 186.167,224.833 185.5,235.5C 183.167,235.5 180.833,235.5 178.5,235.5C 179.036,232.302 178.369,229.635 176.5,227.5C 173.713,226.523 170.713,226.19 167.5,226.5C 167.5,223.5 167.5,220.5 167.5,217.5C 169.95,217.298 172.283,217.631 174.5,218.5C 174.825,220.132 175.825,221.132 177.5,221.5C 180.237,220.049 183.07,218.716 186,217.5C 207.42,202.208 228.92,187.041 250.5,172C 252.578,169.866 254.412,170.032 256,172.5C 258.41,181.097 257.743,189.43 254,197.5C 238.803,210.843 222.97,223.343 206.5,235C 202.915,238.078 199.915,241.578 197.5,245.5 Z"/></g>
<g><path style="opacity:1" fill="#ededed" d="M 165.5,209.5 C 165.5,214.833 165.5,220.167 165.5,225.5C 159.463,225.171 153.463,225.504 147.5,226.5C 150.428,227.484 153.428,227.817 156.5,227.5C 156.5,230.167 156.5,232.833 156.5,235.5C 153.5,235.5 150.5,235.5 147.5,235.5C 129.201,225.349 110.534,215.682 91.5,206.5C 90.1008,196.123 90.2674,185.79 92,175.5C 116.928,185.973 141.428,197.306 165.5,209.5 Z"/></g>
<g><path style="opacity:1" fill="#efefef" d="M 86.5,121.5 C 83.9786,123.701 81.4786,126.034 79,128.5C 78.0799,131.308 78.9133,133.475 81.5,135C 108.159,146.829 135.159,157.829 162.5,168C 169.324,170.909 175.658,174.576 181.5,179C 185.749,180.126 190.082,180.792 194.5,181C 195.517,182.049 195.684,183.216 195,184.5C 193.154,187.829 190.321,189.163 186.5,188.5C 178.782,186.651 171.115,184.485 163.5,182C 137.079,170.625 110.746,158.958 84.5,147C 81.3995,145.409 79.7328,142.909 79.5,139.5C 72.0983,140.06 67.5983,144.06 66,151.5C 63.9155,169.099 62.5822,186.766 62,204.5C 60.8657,209.048 59.5323,213.382 58,217.5C 60.9402,221.426 64.7735,224.26 69.5,226C 89.0369,232.446 108.037,239.946 126.5,248.5C 126.5,254.167 126.5,259.833 126.5,265.5C 119.847,264.946 113.18,264.612 106.5,264.5C 106.335,268.182 106.501,271.848 107,275.5C 107.218,272.574 107.718,269.74 108.5,267C 111.482,266.502 114.482,266.335 117.5,266.5C 117.833,278.5 118.167,278.5 118.5,266.5C 124.5,266.5 130.5,266.5 136.5,266.5C 136.5,269.5 136.5,272.5 136.5,275.5C 125.854,275.671 125.854,276.171 136.5,277C 143.158,277.5 149.825,277.666 156.5,277.5C 156.5,280.167 156.5,282.833 156.5,285.5C 144.5,285.833 144.5,286.167 156.5,286.5C 156.183,289.572 156.516,292.572 157.5,295.5C 158.496,289.537 158.829,283.537 158.5,277.5C 164.5,277.5 170.5,277.5 176.5,277.5C 177.167,286.833 177.833,286.833 178.5,277.5C 180.833,277.5 183.167,277.5 185.5,277.5C 185.5,286.5 185.5,295.5 185.5,304.5C 182.5,304.5 179.5,304.5 176.5,304.5C 176.5,307.833 176.5,311.167 176.5,314.5C 174.833,314.5 173.167,314.5 171.5,314.5C 168.833,314.5 166.167,314.5 163.5,314.5C 161.167,314.5 158.833,314.5 156.5,314.5C 156.5,311.167 156.5,307.833 156.5,304.5C 146.833,304.5 137.167,304.5 127.5,304.5C 127.5,302.167 127.5,299.833 127.5,297.5C 139.5,296.833 139.5,296.167 127.5,295.5C 127.249,292.091 127.583,288.758 128.5,285.5C 118.833,284.167 109.167,284.167 99.5,285.5C 101.743,286.474 104.076,286.808 106.5,286.5C 106.5,289.167 106.5,291.833 106.5,294.5C 104.167,294.5 101.833,294.5 99.5,294.5C 96.95,291.301 93.6167,289.301 89.5,288.5C 81.7469,291.64 81.7469,294.64 89.5,297.5C 91.8362,296.406 91.8362,295.073 89.5,293.5C 94.3273,292.491 96.4939,294.491 96,299.5C 91.173,305.009 87.3396,304.176 84.5,297C 83.552,296.517 82.552,296.351 81.5,296.5C 81.1658,299.188 81.8325,301.521 83.5,303.5C 78.6946,304.487 73.6946,304.821 68.5,304.5C 68.5,302.167 68.5,299.833 68.5,297.5C 80.5,296.833 80.5,296.167 68.5,295.5C 68.5,292.5 68.5,289.5 68.5,286.5C 80.5,286.167 80.5,285.833 68.5,285.5C 68.5,284.5 68.5,283.5 68.5,282.5C 70.1271,280.37 71.9604,278.37 74,276.5C 74.6667,275.5 74.6667,274.5 74,273.5C 70.9148,269.907 67.4148,266.907 63.5,264.5C 60.3631,265.301 58.6964,267.301 58.5,270.5C 56.0274,270.088 54.6941,271.088 54.5,273.5C 52.8863,275.075 50.8863,275.741 48.5,275.5C 48.5,272.833 48.5,270.167 48.5,267.5C 51.5012,264.507 54.8346,261.841 58.5,259.5C 59.4287,258.311 59.762,256.978 59.5,255.5C 58.1266,255.343 56.7932,255.51 55.5,256C 53.3428,257.912 51.0094,259.579 48.5,261C 45.6793,262.621 45.0126,264.788 46.5,267.5C 46.5,273.167 46.5,278.833 46.5,284.5C 44.1667,284.5 41.8333,284.5 39.5,284.5C 38.8333,275.167 38.1667,275.167 37.5,284.5C 25.5,285.167 25.5,285.833 37.5,286.5C 37.5,296.167 37.5,305.833 37.5,315.5C 30.8002,315.17 24.1335,315.503 17.5,316.5C 23.9938,317.662 30.6604,317.662 37.5,316.5C 37.5,319.167 37.5,321.833 37.5,324.5C 25.5,325.167 25.5,325.833 37.5,326.5C 37.5,329.5 37.5,332.5 37.5,335.5C 34.2869,335.19 31.2869,335.523 28.5,336.5C 27.5269,338.948 27.1936,341.615 27.5,344.5C 20.8333,344.5 14.1667,344.5 7.5,344.5C 7.16667,320.5 6.83333,320.5 6.5,344.5C 4.16667,344.5 1.83333,344.5 -0.5,344.5C -0.5,324.5 -0.5,304.5 -0.5,284.5C 1.83333,284.5 4.16667,284.5 6.5,284.5C 6.5,278.833 6.5,273.167 6.5,267.5C 4.16667,267.5 1.83333,267.5 -0.5,267.5C -0.5,234.167 -0.5,200.833 -0.5,167.5C 4.83333,167.5 10.1667,167.5 15.5,167.5C 15.2627,168.791 15.596,169.791 16.5,170.5C 17.023,172.708 18.3563,174.208 20.5,175C 23.5,175.667 26.5,175.667 29.5,175C 33.9311,170.282 34.5978,165.116 31.5,159.5C 33.9479,158.527 36.6146,158.194 39.5,158.5C 39.5,154.833 39.5,151.167 39.5,147.5C 48.8333,146.833 48.8333,146.167 39.5,145.5C 39.5,143.167 39.5,140.833 39.5,138.5C 42.5,138.5 45.5,138.5 48.5,138.5C 48.5,134.833 48.5,131.167 48.5,127.5C 52.1667,127.5 55.8333,127.5 59.5,127.5C 59.5,124.5 59.5,121.5 59.5,118.5C 65.5,118.5 71.5,118.5 77.5,118.5C 77.8333,127.833 78.1667,127.833 78.5,118.5C 81.1667,118.5 83.8333,118.5 86.5,118.5C 86.5,119.5 86.5,120.5 86.5,121.5 Z"/></g>
<g><path style="opacity:1" fill="#141414" d="M 33.5,203.5 C 34.4959,203.414 35.3292,203.748 36,204.5C 36.8583,208.602 38.025,212.602 39.5,216.5C 39.1667,217.167 38.8333,217.833 38.5,218.5C 33.6038,220.475 28.6038,221.642 23.5,222C 22.269,220.817 22.269,219.651 23.5,218.5C 27.5057,217.166 31.5057,215.832 35.5,214.5C 33.7889,210.849 33.1223,207.182 33.5,203.5 Z"/></g>
<g><path style="opacity:1" fill="#141414" d="M 22.5,181.5 C 29.8,180.796 33.8,184.129 34.5,191.5C 33.5304,199.133 29.1971,201.966 21.5,200C 14.5391,193.313 14.8725,187.147 22.5,181.5 Z"/></g>
<g><path style="opacity:1" fill="#efefef" d="M 22.5,186.5 C 30.1589,185.01 32.4922,187.843 29.5,195C 20.5767,197.255 18.2434,194.421 22.5,186.5 Z"/></g>
<g><path style="opacity:1" fill="#fefefe" d="M 59.5,227.5 C 61.8333,227.5 64.1667,227.5 66.5,227.5C 66.5,230.167 66.5,232.833 66.5,235.5C 64.1667,235.5 61.8333,235.5 59.5,235.5C 59.5,232.833 59.5,230.167 59.5,227.5 Z"/></g>
<g><path style="opacity:1" fill="#111111" d="M 40.5,236.5 C 47.3678,236.525 51.3678,240.025 52.5,247C 51.9658,251.203 49.6325,253.87 45.5,255C 43.0288,255.706 40.6954,255.373 38.5,254C 34.7708,250.255 33.4375,245.922 34.5,241C 35.448,240.517 36.448,240.351 37.5,240.5C 36.8999,244.516 37.8999,248.016 40.5,251C 48.8457,250.93 50.5124,247.597 45.5,241C 43.2752,240.761 42.9419,241.595 44.5,243.5C 44,243.833 43.5,244.167 43,244.5C 41.2326,243.66 39.8993,242.327 39,240.5C 38.516,238.807 39.016,237.473 40.5,236.5 Z"/></g>
<g><path style="opacity:1" fill="#dedede" d="M 165.5,209.5 C 169.522,211.522 172.522,214.522 174.5,218.5C 172.283,217.631 169.95,217.298 167.5,217.5C 167.5,220.5 167.5,223.5 167.5,226.5C 170.713,226.19 173.713,226.523 176.5,227.5C 178.369,229.635 179.036,232.302 178.5,235.5C 180.833,235.5 183.167,235.5 185.5,235.5C 186.167,224.833 186.833,224.833 187.5,235.5C 199.5,236.167 199.5,236.833 187.5,237.5C 187.5,240.167 187.5,242.833 187.5,245.5C 190.833,245.5 194.167,245.5 197.5,245.5C 197.283,248.421 197.949,251.087 199.5,253.5C 198.25,253.577 197.417,254.244 197,255.5C 196.782,252.574 196.282,249.74 195.5,247C 186.184,246.591 176.85,246.424 167.5,246.5C 167.5,249.833 167.5,253.167 167.5,256.5C 160.398,249.942 153.731,242.942 147.5,235.5C 150.5,235.5 153.5,235.5 156.5,235.5C 156.5,232.833 156.5,230.167 156.5,227.5C 153.428,227.817 150.428,227.484 147.5,226.5C 153.463,225.504 159.463,225.171 165.5,225.5C 165.5,220.167 165.5,214.833 165.5,209.5 Z"/></g>
<g><path style="opacity:1" fill="#f3f3f3" d="M 176.5,227.5 C 176.664,230.187 176.497,232.854 176,235.5C 173.26,236.282 170.426,236.782 167.5,237C 170.482,237.498 173.482,237.665 176.5,237.5C 176.5,240.167 176.5,242.833 176.5,245.5C 170.5,245.5 164.5,245.5 158.5,245.5C 158.5,239.5 158.5,233.5 158.5,227.5C 160.833,227.5 163.167,227.5 165.5,227.5C 165.833,238.167 166.167,238.167 166.5,227.5C 169.833,227.5 173.167,227.5 176.5,227.5 Z"/></g>
<g><path style="opacity:1" fill="#0f0f0f" d="M 48.5,267.5 C 47.8333,267.5 47.1667,267.5 46.5,267.5C 45.0126,264.788 45.6793,262.621 48.5,261C 51.0094,259.579 53.3428,257.912 55.5,256C 56.7932,255.51 58.1266,255.343 59.5,255.5C 59.762,256.978 59.4287,258.311 58.5,259.5C 54.8346,261.841 51.5012,264.507 48.5,267.5 Z"/></g>
<g><path style="opacity:1" fill="#0d0d0d" d="M 68.5,282.5 C 67.0892,283.908 65.4225,284.908 63.5,285.5C 61.5056,283.84 59.5056,282.173 57.5,280.5C 56.8333,279.5 56.1667,278.5 55.5,277.5C 54.7659,276.292 54.4326,274.959 54.5,273.5C 54.6941,271.088 56.0274,270.088 58.5,270.5C 58.6964,267.301 60.3631,265.301 63.5,264.5C 67.4148,266.907 70.9148,269.907 74,273.5C 74.6667,274.5 74.6667,275.5 74,276.5C 71.9604,278.37 70.1271,280.37 68.5,282.5 Z"/></g>
<g><path style="opacity:1" fill="#fefffe" d="M -0.5,267.5 C 1.83333,267.5 4.16667,267.5 6.5,267.5C 6.5,273.167 6.5,278.833 6.5,284.5C 4.16667,284.5 1.83333,284.5 -0.5,284.5C -0.5,278.833 -0.5,273.167 -0.5,267.5 Z"/></g>
<g><path style="opacity:1" fill="#d1d1d1" d="M 63.5,268.5 C 66.2254,269.713 68.5588,271.546 70.5,274C 67.5847,277.174 65.0847,276.674 63,272.5C 62.4209,271.072 62.5876,269.738 63.5,268.5 Z"/></g>
<g><path style="opacity:1" fill="#0e0e0e" d="M 287.5,284.5 C 286.577,285.303 285.577,285.47 284.5,285C 281.667,282.167 278.833,279.333 276,276.5C 273.443,279.192 270.609,281.525 267.5,283.5C 266.417,282.635 266.251,281.635 267,280.5C 268.707,278.963 270.207,277.296 271.5,275.5C 272.962,274.542 274.295,273.376 275.5,272C 276.167,271.333 276.833,271.333 277.5,272C 280.667,275.167 283.833,278.333 287,281.5C 287.483,282.448 287.649,283.448 287.5,284.5 Z"/></g>
<g><path style="opacity:1" fill="#d4d4d4" d="M 58.5,273.5 C 60.7157,274.203 62.549,275.536 64,277.5C 64.6172,278.449 64.4506,279.282 63.5,280C 59.8977,279.544 58.231,277.377 58.5,273.5 Z"/></g>
<g><path style="opacity:1" fill="#fcfcfc" d="M 55.5,277.5 C 56.1667,278.5 56.8333,279.5 57.5,280.5C 57.5,281.833 57.5,283.167 57.5,284.5C 54.5,284.5 51.5,284.5 48.5,284.5C 48.5,282.167 48.5,279.833 48.5,277.5C 50.8333,277.5 53.1667,277.5 55.5,277.5 Z"/></g>
<g><path style="opacity:1" fill="#f1f1f1" d="M 235.5,300.5 C 229.247,302.339 227.247,306.339 229.5,312.5C 231.677,312.414 233.677,311.747 235.5,310.5C 236.833,309.5 236.833,308.5 235.5,307.5C 234.391,308.59 233.391,308.59 232.5,307.5C 236.095,302.205 239.595,302.205 243,307.5C 243.667,308.833 243.667,310.167 243,311.5C 239.315,314.004 235.482,315.337 231.5,315.5C 233.938,318.525 236.938,319.192 240.5,317.5C 242.167,317.5 243.833,317.5 245.5,317.5C 245.5,320.5 245.5,323.5 245.5,326.5C 248.833,326.5 252.167,326.5 255.5,326.5C 255.5,329.5 255.5,332.5 255.5,335.5C 244.833,335.833 244.833,336.167 255.5,336.5C 256.167,340.5 256.833,340.5 257.5,336.5C 260.167,336.5 262.833,336.5 265.5,336.5C 265.5,339.167 265.5,341.833 265.5,344.5C 259.167,344.5 252.833,344.5 246.5,344.5C 246.167,333.833 245.833,333.833 245.5,344.5C 239.5,344.5 233.5,344.5 227.5,344.5C 227.5,341.833 227.5,339.167 227.5,336.5C 238.167,336.167 238.167,335.833 227.5,335.5C 227.817,332.428 227.484,329.428 226.5,326.5C 225.52,329.086 225.187,331.753 225.5,334.5C 222.833,334.5 220.167,334.5 217.5,334.5C 217.167,323.833 216.833,323.833 216.5,334.5C 213.5,334.5 210.5,334.5 207.5,334.5C 207.298,332.05 207.631,329.717 208.5,327.5C 211.59,328.17 213.257,327.003 213.5,324C 212.828,319.8 211.994,315.633 211,311.5C 210.107,310.919 209.107,310.585 208,310.5C 203.108,310.962 198.775,312.629 195,315.5C 195.451,319.112 195.951,322.779 196.5,326.5C 196.5,329.167 196.5,331.833 196.5,334.5C 193.5,334.5 190.5,334.5 187.5,334.5C 187.5,333.5 187.5,332.5 187.5,331.5C 188.117,331.389 188.617,331.056 189,330.5C 189.621,324.937 189.121,319.604 187.5,314.5C 187.5,308.5 187.5,302.5 187.5,296.5C 199.5,296.167 199.5,295.833 187.5,295.5C 187.5,292.5 187.5,289.5 187.5,286.5C 193.5,286.5 199.5,286.5 205.5,286.5C 205.5,290.167 205.5,293.833 205.5,297.5C 209.226,297.823 212.893,297.489 216.5,296.5C 213.572,295.516 210.572,295.183 207.5,295.5C 207.5,292.5 207.5,289.5 207.5,286.5C 218.167,285.833 218.167,285.167 207.5,284.5C 206.833,275.167 206.167,275.167 205.5,284.5C 199.5,284.5 193.5,284.5 187.5,284.5C 187.829,278.463 187.496,272.463 186.5,266.5C 185.516,269.428 185.183,272.428 185.5,275.5C 183.167,275.5 180.833,275.5 178.5,275.5C 178.5,271.833 178.5,268.167 178.5,264.5C 175.167,264.5 171.833,264.5 168.5,264.5C 168.784,262.585 168.451,260.919 167.5,259.5C 167.5,258.5 167.5,257.5 167.5,256.5C 167.5,253.167 167.5,249.833 167.5,246.5C 176.85,246.424 186.184,246.591 195.5,247C 196.282,249.74 196.782,252.574 197,255.5C 197.417,254.244 198.25,253.577 199.5,253.5C 201.142,255.081 203.142,255.747 205.5,255.5C 205.183,258.572 205.516,261.572 206.5,264.5C 207.474,262.257 207.808,259.924 207.5,257.5C 210.5,257.5 213.5,257.5 216.5,257.5C 216.5,263.5 216.5,269.5 216.5,275.5C 213.482,275.335 210.482,275.502 207.5,276C 210.167,276.333 212.833,276.667 215.5,277C 216.274,279.405 216.774,281.905 217,284.5C 217.841,275.42 218.008,266.42 217.5,257.5C 220.167,257.5 222.833,257.5 225.5,257.5C 225.18,254.102 225.513,250.768 226.5,247.5C 227.48,250.086 227.813,252.753 227.5,255.5C 230.167,255.5 232.833,255.5 235.5,255.5C 236.167,244.833 236.833,244.833 237.5,255.5C 240.167,255.5 242.833,255.5 245.5,255.5C 244.994,251.993 245.66,248.826 247.5,246C 246.39,243.263 246.223,240.429 247,237.5C 247.497,239.81 247.663,242.143 247.5,244.5C 250.167,244.5 252.833,244.5 255.5,244.5C 256.639,238.564 257.306,232.564 257.5,226.5C 263.491,226.966 269.491,227.299 275.5,227.5C 275.5,230.5 275.5,233.5 275.5,236.5C 264.833,236.833 264.833,237.167 275.5,237.5C 275.5,243.5 275.5,249.5 275.5,255.5C 272.5,255.5 269.5,255.5 266.5,255.5C 266.167,244.833 265.833,244.833 265.5,255.5C 262.167,255.5 258.833,255.5 255.5,255.5C 255.5,258.5 255.5,261.5 255.5,264.5C 249.5,264.5 243.5,264.5 237.5,264.5C 237.808,262.076 237.474,259.743 236.5,257.5C 235.516,260.428 235.183,263.428 235.5,266.5C 224.833,266.833 224.833,267.167 235.5,267.5C 235.5,270.167 235.5,272.833 235.5,275.5C 232.167,275.5 228.833,275.5 225.5,275.5C 225.5,278.5 225.5,281.5 225.5,284.5C 216.167,285.167 216.167,285.833 225.5,286.5C 223.668,294.998 227.001,298.665 235.5,297.5C 235.5,298.5 235.5,299.5 235.5,300.5 Z"/></g>
<g><path style="opacity:1" fill="#ececec" d="M 314.5,185.5 C 314.5,187.5 314.5,189.5 314.5,191.5C 313.566,190.432 313.232,189.099 313.5,187.5C 311.167,187.5 308.833,187.5 306.5,187.5C 306.5,190.167 306.5,192.833 306.5,195.5C 309.698,196.036 312.365,195.369 314.5,193.5C 315.659,195.25 317.326,196.25 319.5,196.5C 319.5,196.833 319.5,197.167 319.5,197.5C 317.55,202.735 316.883,208.402 317.5,214.5C 315.213,214.276 313.047,213.609 311,212.5C 308.41,216.249 306.576,220.416 305.5,225C 306.147,229.737 308.647,231.237 313,229.5C 314.039,230.71 315.206,231.71 316.5,232.5C 317.239,236.015 317.239,239.348 316.5,242.5C 313.134,239.3 309.134,236.8 304.5,235C 302.393,234.146 301.059,234.812 300.5,237C 304.143,239.826 308.143,242.159 312.5,244C 313.928,244.579 315.262,244.412 316.5,243.5C 322.412,245.456 328.745,246.123 335.5,245.5C 334.167,239.5 334.167,233.5 335.5,227.5C 323.5,226.833 323.5,226.167 335.5,225.5C 335.5,222.833 335.5,220.167 335.5,217.5C 332.482,217.665 329.482,217.498 326.5,217C 330.832,216.417 335.165,215.917 339.5,215.5C 338.224,218.336 337.558,221.336 337.5,224.5C 339.833,224.5 342.167,224.5 344.5,224.5C 344.171,218.794 344.505,213.128 345.5,207.5C 346.496,213.463 346.829,219.463 346.5,225.5C 347.833,225.5 349.167,225.5 350.5,225.5C 350.5,232.5 350.5,239.5 350.5,246.5C 345.927,247.023 341.26,247.023 336.5,246.5C 336.5,249.5 336.5,252.5 336.5,255.5C 340.5,256.167 340.5,256.833 336.5,257.5C 336.167,266.833 335.833,266.833 335.5,257.5C 329.463,257.829 323.463,257.496 317.5,256.5C 319.743,255.526 322.076,255.192 324.5,255.5C 324.5,252.5 324.5,249.5 324.5,246.5C 319.857,246.994 315.357,246.994 311,246.5C 309.014,246.569 307.514,247.235 306.5,248.5C 296.352,243.668 290.852,247.001 290,258.5C 294.723,264.013 297.556,263.013 298.5,255.5C 292.925,257.728 292.092,256.062 296,250.5C 298.794,249.154 301.294,249.654 303.5,252C 304.576,253.726 304.743,255.559 304,257.5C 301.697,259.393 299.53,261.393 297.5,263.5C 299.074,264.631 300.741,264.798 302.5,264C 303.705,262.624 305.038,261.458 306.5,260.5C 306.5,262.167 306.5,263.833 306.5,265.5C 309.909,265.751 313.242,265.417 316.5,264.5C 317.489,268.107 317.823,271.774 317.5,275.5C 323.198,275.596 328.865,276.096 334.5,277C 335.435,279.381 335.768,281.881 335.5,284.5C 319.5,284.5 303.5,284.5 287.5,284.5C 287.649,283.448 287.483,282.448 287,281.5C 283.833,278.333 280.667,275.167 277.5,272C 276.833,271.333 276.167,271.333 275.5,272C 274.295,273.376 272.962,274.542 271.5,275.5C 269.5,275.5 267.5,275.5 265.5,275.5C 265.5,278.5 265.5,281.5 265.5,284.5C 262.167,284.5 258.833,284.5 255.5,284.5C 255.5,285.833 255.5,287.167 255.5,288.5C 249.2,293.452 248.867,298.952 254.5,305C 259.585,306.332 263.919,305.165 267.5,301.5C 267.5,303.167 267.5,304.833 267.5,306.5C 264.167,306.5 260.833,306.5 257.5,306.5C 256.833,318.5 256.167,318.5 255.5,306.5C 252.833,306.5 250.167,306.5 247.5,306.5C 245.423,300.388 241.423,298.388 235.5,300.5C 235.5,299.5 235.5,298.5 235.5,297.5C 227.001,298.665 223.668,294.998 225.5,286.5C 216.167,285.833 216.167,285.167 225.5,284.5C 225.5,281.5 225.5,278.5 225.5,275.5C 228.833,275.5 232.167,275.5 235.5,275.5C 235.5,272.833 235.5,270.167 235.5,267.5C 224.833,267.167 224.833,266.833 235.5,266.5C 235.183,263.428 235.516,260.428 236.5,257.5C 237.474,259.743 237.808,262.076 237.5,264.5C 243.5,264.5 249.5,264.5 255.5,264.5C 255.5,261.5 255.5,258.5 255.5,255.5C 258.833,255.5 262.167,255.5 265.5,255.5C 265.833,244.833 266.167,244.833 266.5,255.5C 269.5,255.5 272.5,255.5 275.5,255.5C 275.5,249.5 275.5,243.5 275.5,237.5C 264.833,237.167 264.833,236.833 275.5,236.5C 275.5,233.5 275.5,230.5 275.5,227.5C 269.491,227.299 263.491,226.966 257.5,226.5C 257.306,232.564 256.639,238.564 255.5,244.5C 252.833,244.5 250.167,244.5 247.5,244.5C 247.663,242.143 247.497,239.81 247,237.5C 246.223,240.429 246.39,243.263 247.5,246C 245.66,248.826 244.994,251.993 245.5,255.5C 242.833,255.5 240.167,255.5 237.5,255.5C 236.833,244.833 236.167,244.833 235.5,255.5C 232.833,255.5 230.167,255.5 227.5,255.5C 227.813,252.753 227.48,250.086 226.5,247.5C 225.513,250.768 225.18,254.102 225.5,257.5C 222.833,257.5 220.167,257.5 217.5,257.5C 218.008,266.42 217.841,275.42 217,284.5C 216.774,281.905 216.274,279.405 215.5,277C 212.833,276.667 210.167,276.333 207.5,276C 210.482,275.502 213.482,275.335 216.5,275.5C 216.5,269.5 216.5,263.5 216.5,257.5C 213.5,257.5 210.5,257.5 207.5,257.5C 207.808,259.924 207.474,262.257 206.5,264.5C 205.516,261.572 205.183,258.572 205.5,255.5C 207.414,254.815 209.414,254.315 211.5,254C 233.512,240.815 254.846,226.648 275.5,211.5C 276.805,204.74 277.805,198.073 278.5,191.5C 278.5,193.167 278.5,194.833 278.5,196.5C 280.5,196.5 282.5,196.5 284.5,196.5C 284.5,193.5 284.5,190.5 284.5,187.5C 282.5,187.5 280.5,187.5 278.5,187.5C 278.395,183.452 278.728,179.452 279.5,175.5C 281.167,175.5 282.833,175.5 284.5,175.5C 284.336,172.813 284.503,170.146 285,167.5C 285.498,170.482 285.665,173.482 285.5,176.5C 288.898,176.18 292.232,176.513 295.5,177.5C 292.914,178.48 290.247,178.813 287.5,178.5C 287.5,180.833 287.5,183.167 287.5,185.5C 296.5,185.5 305.5,185.5 314.5,185.5 Z"/></g>
<g><path style="opacity:1" fill="#0f0f0f" d="M 306.5,248.5 C 309.048,252.461 309.048,256.461 306.5,260.5C 305.038,261.458 303.705,262.624 302.5,264C 300.741,264.798 299.074,264.631 297.5,263.5C 299.53,261.393 301.697,259.393 304,257.5C 304.743,255.559 304.576,253.726 303.5,252C 301.294,249.654 298.794,249.154 296,250.5C 292.092,256.062 292.925,257.728 298.5,255.5C 297.556,263.013 294.723,264.013 290,258.5C 290.852,247.001 296.352,243.668 306.5,248.5 Z"/></g>
<g><path style="opacity:1" fill="#fcfcfc" d="M 277.5,237.5 C 279.833,237.5 282.167,237.5 284.5,237.5C 284.5,240.167 284.5,242.833 284.5,245.5C 282.167,245.5 279.833,245.5 277.5,245.5C 277.5,242.833 277.5,240.167 277.5,237.5 Z"/></g>
<g><path style="opacity:1" fill="#0e0e0e" d="M 316.5,242.5 C 316.5,242.833 316.5,243.167 316.5,243.5C 315.262,244.412 313.928,244.579 312.5,244C 308.143,242.159 304.143,239.826 300.5,237C 301.059,234.812 302.393,234.146 304.5,235C 309.134,236.8 313.134,239.3 316.5,242.5 Z"/></g>
<g><path style="opacity:1" fill="#fefefe" d="M 337.5,227.5 C 339.833,227.5 342.167,227.5 344.5,227.5C 344.5,233.167 344.5,238.833 344.5,244.5C 342.167,244.5 339.833,244.5 337.5,244.5C 337.11,241.534 337.777,238.868 339.5,236.5C 337.74,233.788 337.073,230.788 337.5,227.5 Z"/></g>
<g><path style="opacity:1" fill="#121212" d="M 317.5,214.5 C 319.89,216.02 322.557,217.02 325.5,217.5C 324.307,221.911 322.807,226.244 321,230.5C 319.89,232.037 318.39,232.703 316.5,232.5C 315.206,231.71 314.039,230.71 313,229.5C 308.647,231.237 306.147,229.737 305.5,225C 306.576,220.416 308.41,216.249 311,212.5C 313.047,213.609 315.213,214.276 317.5,214.5 Z"/></g>
<g><path style="opacity:1" fill="#e2e2e2" d="M 317.5,220.5 C 318.5,220.5 319.5,220.5 320.5,220.5C 320.849,223.463 319.849,225.796 317.5,227.5C 316.637,225.229 316.637,222.895 317.5,220.5 Z"/></g>
<g><path style="opacity:1" fill="#e5e5e5" d="M 310.5,218.5 C 311.833,218.5 313.167,218.5 314.5,218.5C 314.287,221.475 313.287,224.142 311.5,226.5C 310.119,226 309.453,225 309.5,223.5C 310.046,221.865 310.38,220.199 310.5,218.5 Z"/></g>
<g><path style="opacity:1" fill="#151515" d="M 267.5,301.5 C 263.919,305.165 259.585,306.332 254.5,305C 248.867,298.952 249.2,293.452 255.5,288.5C 266.34,286.342 270.34,290.676 267.5,301.5 Z"/></g>
<g><path style="opacity:1" fill="#101010" d="M 99.5,294.5 C 99.5,295.167 99.8333,295.5 100.5,295.5C 100.617,304.73 96.2834,308.397 87.5,306.5C 86.5637,305.026 85.2303,304.026 83.5,303.5C 81.8325,301.521 81.1658,299.188 81.5,296.5C 82.552,296.351 83.552,296.517 84.5,297C 87.3396,304.176 91.173,305.009 96,299.5C 96.4939,294.491 94.3273,292.491 89.5,293.5C 91.8362,295.073 91.8362,296.406 89.5,297.5C 81.7469,294.64 81.7469,291.64 89.5,288.5C 93.6167,289.301 96.95,291.301 99.5,294.5 Z"/></g>
<g><path style="opacity:1" fill="#e1e1e1" d="M 46.5,267.5 C 47.1667,267.5 47.8333,267.5 48.5,267.5C 48.5,270.167 48.5,272.833 48.5,275.5C 50.8863,275.741 52.8863,275.075 54.5,273.5C 54.4326,274.959 54.7659,276.292 55.5,277.5C 53.1667,277.5 50.8333,277.5 48.5,277.5C 48.5,279.833 48.5,282.167 48.5,284.5C 51.5,284.5 54.5,284.5 57.5,284.5C 57.5,283.167 57.5,281.833 57.5,280.5C 59.5056,282.173 61.5056,283.84 63.5,285.5C 65.4225,284.908 67.0892,283.908 68.5,282.5C 68.5,283.5 68.5,284.5 68.5,285.5C 80.5,285.833 80.5,286.167 68.5,286.5C 68.5,289.5 68.5,292.5 68.5,295.5C 80.5,296.167 80.5,296.833 68.5,297.5C 68.5,299.833 68.5,302.167 68.5,304.5C 73.6946,304.821 78.6946,304.487 83.5,303.5C 85.2303,304.026 86.5637,305.026 87.5,306.5C 81.1667,306.5 74.8333,306.5 68.5,306.5C 68.8226,310.226 68.4892,313.893 67.5,317.5C 64.9159,316.607 62.2492,316.274 59.5,316.5C 59.5,322.5 59.5,328.5 59.5,334.5C 68.8333,335.167 68.8333,335.833 59.5,336.5C 58.8333,340.5 58.1667,340.5 57.5,336.5C 45.5,335.833 45.5,335.167 57.5,334.5C 57.5,328.5 57.5,322.5 57.5,316.5C 54.091,316.249 50.7577,316.583 47.5,317.5C 46.5159,320.428 46.1826,323.428 46.5,326.5C 44.1667,326.5 41.8333,326.5 39.5,326.5C 39.5,329.167 39.5,331.833 39.5,334.5C 48.8333,335.167 48.8333,335.833 39.5,336.5C 38.8333,340.5 38.1667,340.5 37.5,336.5C 34.5,336.5 31.5,336.5 28.5,336.5C 31.2869,335.523 34.2869,335.19 37.5,335.5C 37.5,332.5 37.5,329.5 37.5,326.5C 25.5,325.833 25.5,325.167 37.5,324.5C 37.5,321.833 37.5,319.167 37.5,316.5C 30.6604,317.662 23.9938,317.662 17.5,316.5C 24.1335,315.503 30.8002,315.17 37.5,315.5C 37.5,305.833 37.5,296.167 37.5,286.5C 25.5,285.833 25.5,285.167 37.5,284.5C 38.1667,275.167 38.8333,275.167 39.5,284.5C 41.8333,284.5 44.1667,284.5 46.5,284.5C 46.5,278.833 46.5,273.167 46.5,267.5 Z"/></g>
<g><path style="opacity:1" fill="#efefef" d="M 256.5,291.5 C 263.803,291.602 265.803,294.769 262.5,301C 254.942,301.282 252.942,298.115 256.5,291.5 Z"/></g>
<g><path style="opacity:1" fill="#111111" d="M 247.5,306.5 C 247.5,308.167 247.5,309.833 247.5,311.5C 245.766,314.2 243.432,316.2 240.5,317.5C 236.938,319.192 233.938,318.525 231.5,315.5C 235.482,315.337 239.315,314.004 243,311.5C 243.667,310.167 243.667,308.833 243,307.5C 239.595,302.205 236.095,302.205 232.5,307.5C 233.391,308.59 234.391,308.59 235.5,307.5C 236.833,308.5 236.833,309.5 235.5,310.5C 233.677,311.747 231.677,312.414 229.5,312.5C 227.247,306.339 229.247,302.339 235.5,300.5C 241.423,298.388 245.423,300.388 247.5,306.5 Z"/></g>
<g><path style="opacity:1" fill="#101010" d="M 120.5,304.5 C 122.777,307.617 123.11,310.951 121.5,314.5C 116.546,320.786 111.046,321.12 105,315.5C 102.563,301.799 107.73,298.133 120.5,304.5 Z"/></g>
<g><path style="opacity:1" fill="#f2f2f2" d="M 48.5,286.5 C 54.5,286.5 60.5,286.5 66.5,286.5C 66.5,292.5 66.5,298.5 66.5,304.5C 63.5,304.5 60.5,304.5 57.5,304.5C 57.5,308.167 57.5,311.833 57.5,315.5C 51.5,315.5 45.5,315.5 39.5,315.5C 39.5,309.5 39.5,303.5 39.5,297.5C 41.8333,297.5 44.1667,297.5 46.5,297.5C 46.1924,299.924 46.5258,302.257 47.5,304.5C 48.48,301.914 48.8134,299.247 48.5,296.5C 60.5,296.167 60.5,295.833 48.5,295.5C 48.5,292.5 48.5,289.5 48.5,286.5 Z"/></g>
<g><path style="opacity:1" fill="#ececec" d="M 110.5,304.5 C 116.555,304.052 118.721,306.719 117,312.5C 114.374,316.072 111.374,316.405 108,313.5C 107.131,310.007 107.964,307.007 110.5,304.5 Z"/></g>
<g><path style="opacity:1" fill="#131313" d="M 136.5,327.5 C 135.878,322.765 135.878,318.099 136.5,313.5C 133.211,312.609 130.211,311.276 127.5,309.5C 127.833,308.5 128.5,307.833 129.5,307.5C 133.552,308.709 137.552,310.042 141.5,311.5C 141.833,312.333 142.167,313.167 142.5,314C 141.388,318.496 140.388,322.996 139.5,327.5C 138.5,327.5 137.5,327.5 136.5,327.5 Z"/></g>
<g><path style="opacity:1" fill="#0f0f0f" d="M 208.5,327.5 C 204.246,329.132 200.246,328.799 196.5,326.5C 195.951,322.779 195.451,319.112 195,315.5C 198.775,312.629 203.108,310.962 208,310.5C 209.107,310.585 210.107,310.919 211,311.5C 211.994,315.633 212.828,319.8 213.5,324C 213.257,327.003 211.59,328.17 208.5,327.5 Z"/></g>
<g><path style="opacity:1" fill="#efefef" d="M 350.5,246.5 C 350.5,279.167 350.5,311.833 350.5,344.5C 348.5,344.5 346.5,344.5 344.5,344.5C 344.5,338.5 344.5,332.5 344.5,326.5C 341.833,326.5 339.167,326.5 336.5,326.5C 335.994,330.007 336.66,333.174 338.5,336C 337.333,336.5 336.5,337.333 336,338.5C 333.196,336.656 330.03,335.989 326.5,336.5C 326.5,339.167 326.5,341.833 326.5,344.5C 319.833,344.5 313.167,344.5 306.5,344.5C 306.167,333.833 305.833,333.833 305.5,344.5C 299.167,344.5 292.833,344.5 286.5,344.5C 286.5,341.833 286.5,339.167 286.5,336.5C 289.5,336.5 292.5,336.5 295.5,336.5C 296.167,340.5 296.833,340.5 297.5,336.5C 306.833,335.833 306.833,335.167 297.5,334.5C 296.833,323.833 296.167,323.833 295.5,334.5C 292.5,334.5 289.5,334.5 286.5,334.5C 286.664,331.813 286.497,329.146 286,326.5C 285.501,332.491 285.334,338.491 285.5,344.5C 279.5,344.5 273.5,344.5 267.5,344.5C 267.5,341.5 267.5,338.5 267.5,335.5C 278.167,335.167 278.167,334.833 267.5,334.5C 267.927,331.212 267.26,328.212 265.5,325.5C 259.202,324.504 252.868,324.17 246.5,324.5C 246.586,320.143 246.92,315.81 247.5,311.5C 247.5,309.833 247.5,308.167 247.5,306.5C 250.167,306.5 252.833,306.5 255.5,306.5C 256.167,318.5 256.833,318.5 257.5,306.5C 260.833,306.5 264.167,306.5 267.5,306.5C 267.5,304.833 267.5,303.167 267.5,301.5C 270.34,290.676 266.34,286.342 255.5,288.5C 255.5,287.167 255.5,285.833 255.5,284.5C 258.833,284.5 262.167,284.5 265.5,284.5C 265.5,281.5 265.5,278.5 265.5,275.5C 267.5,275.5 269.5,275.5 271.5,275.5C 270.207,277.296 268.707,278.963 267,280.5C 266.251,281.635 266.417,282.635 267.5,283.5C 270.609,281.525 273.443,279.192 276,276.5C 278.833,279.333 281.667,282.167 284.5,285C 285.577,285.47 286.577,285.303 287.5,284.5C 303.5,284.5 319.5,284.5 335.5,284.5C 335.768,281.881 335.435,279.381 334.5,277C 328.865,276.096 323.198,275.596 317.5,275.5C 317.823,271.774 317.489,268.107 316.5,264.5C 313.242,265.417 309.909,265.751 306.5,265.5C 306.5,263.833 306.5,262.167 306.5,260.5C 309.048,256.461 309.048,252.461 306.5,248.5C 307.514,247.235 309.014,246.569 311,246.5C 315.357,246.994 319.857,246.994 324.5,246.5C 324.5,249.5 324.5,252.5 324.5,255.5C 322.076,255.192 319.743,255.526 317.5,256.5C 323.463,257.496 329.463,257.829 335.5,257.5C 335.833,266.833 336.167,266.833 336.5,257.5C 340.5,256.833 340.5,256.167 336.5,255.5C 336.5,252.5 336.5,249.5 336.5,246.5C 341.26,247.023 345.927,247.023 350.5,246.5 Z"/></g>
<g><path style="opacity:1" fill="#fcfcfc" d="M 344.5,344.5 C 338.5,344.5 332.5,344.5 326.5,344.5C 326.5,341.833 326.5,339.167 326.5,336.5C 330.03,335.989 333.196,336.656 336,338.5C 336.5,337.333 337.333,336.5 338.5,336C 336.66,333.174 335.994,330.007 336.5,326.5C 339.167,326.5 341.833,326.5 344.5,326.5C 344.5,332.5 344.5,338.5 344.5,344.5 Z"/></g>
<g><path style="opacity:1" fill="#f2f2f2" d="M 120.5,304.5 C 107.73,298.133 102.563,301.799 105,315.5C 111.046,321.12 116.546,320.786 121.5,314.5C 123.81,315.164 126.31,315.497 129,315.5C 131.929,315.475 134.429,314.809 136.5,313.5C 135.878,318.099 135.878,322.765 136.5,327.5C 136.5,329.833 136.5,332.167 136.5,334.5C 125.833,334.833 125.833,335.167 136.5,335.5C 136.238,336.978 136.571,338.311 137.5,339.5C 138.386,338.675 138.719,337.675 138.5,336.5C 141.167,336.5 143.833,336.5 146.5,336.5C 146.5,339.167 146.5,341.833 146.5,344.5C 140.491,344.334 134.491,344.501 128.5,345C 134.167,345.333 139.833,345.667 145.5,346C 146.191,347.067 146.691,348.234 147,349.5C 147.483,348.552 147.649,347.552 147.5,346.5C 153.833,346.5 160.167,346.5 166.5,346.5C 166.833,350.5 167.167,350.5 167.5,346.5C 173.5,346.5 179.5,346.5 185.5,346.5C 186.167,350.5 186.833,350.5 187.5,346.5C 193.5,346.5 199.5,346.5 205.5,346.5C 206.167,350.5 206.833,350.5 207.5,346.5C 213.5,346.5 219.5,346.5 225.5,346.5C 226.167,350.5 226.833,350.5 227.5,346.5C 233.5,346.5 239.5,346.5 245.5,346.5C 245.833,350.5 246.167,350.5 246.5,346.5C 252.833,346.5 259.167,346.5 265.5,346.5C 265.833,350.5 266.167,350.5 266.5,346.5C 272.833,346.5 279.167,346.5 285.5,346.5C 285.833,350.5 286.167,350.5 286.5,346.5C 292.833,346.5 299.167,346.5 305.5,346.5C 305.833,350.5 306.167,350.5 306.5,346.5C 312.5,346.5 318.5,346.5 324.5,346.5C 325.167,350.5 325.833,350.5 326.5,346.5C 332.5,346.5 338.5,346.5 344.5,346.5C 345.167,350.5 345.833,350.5 346.5,346.5C 347.5,346.5 348.5,346.5 349.5,346.5C 349.67,347.822 349.337,348.989 348.5,350C 232.167,350.5 115.834,350.667 -0.5,350.5C -0.5,349.167 -0.5,347.833 -0.5,346.5C 2.16667,346.5 4.83333,346.5 7.5,346.5C 7.83333,350.5 8.16667,350.5 8.5,346.5C 14.8333,346.5 21.1667,346.5 27.5,346.5C 27.8333,350.5 28.1667,350.5 28.5,346.5C 34.5,346.5 40.5,346.5 46.5,346.5C 47.1667,350.5 47.8333,350.5 48.5,346.5C 54.5,346.5 60.5,346.5 66.5,346.5C 67.1667,350.5 67.8333,350.5 68.5,346.5C 74.5,346.5 80.5,346.5 86.5,346.5C 87.1667,350.5 87.8333,350.5 88.5,346.5C 94.5,346.5 100.5,346.5 106.5,346.5C 106.833,350.5 107.167,350.5 107.5,346.5C 113.509,346.666 119.509,346.499 125.5,346C 119.843,345.501 114.176,345.334 108.5,345.5C 108.5,342.5 108.5,339.5 108.5,336.5C 119.167,335.833 119.167,335.167 108.5,334.5C 107.833,323.833 107.167,323.833 106.5,334.5C 103.833,334.5 101.167,334.5 98.5,334.5C 98.1667,323.833 97.8333,323.833 97.5,334.5C 91.4632,334.171 85.4632,334.504 79.5,335.5C 81.7427,336.474 84.076,336.808 86.5,336.5C 86.5,339.167 86.5,341.833 86.5,344.5C 67.1667,344.5 47.8333,344.5 28.5,344.5C 28.5,341.833 28.5,339.167 28.5,336.5C 31.5,336.5 34.5,336.5 37.5,336.5C 38.1667,340.5 38.8333,340.5 39.5,336.5C 48.8333,335.833 48.8333,335.167 39.5,334.5C 39.5,331.833 39.5,329.167 39.5,326.5C 41.8333,326.5 44.1667,326.5 46.5,326.5C 46.1826,323.428 46.5159,320.428 47.5,317.5C 50.7577,316.583 54.091,316.249 57.5,316.5C 57.5,322.5 57.5,328.5 57.5,334.5C 45.5,335.167 45.5,335.833 57.5,336.5C 58.1667,340.5 58.8333,340.5 59.5,336.5C 68.8333,335.833 68.8333,335.167 59.5,334.5C 59.5,328.5 59.5,322.5 59.5,316.5C 62.2492,316.274 64.9159,316.607 67.5,317.5C 68.4892,313.893 68.8226,310.226 68.5,306.5C 74.8333,306.5 81.1667,306.5 87.5,306.5C 96.2834,308.397 100.617,304.73 100.5,295.5C 103.167,295.5 105.833,295.5 108.5,295.5C 108.5,292.5 108.5,289.5 108.5,286.5C 114.5,286.5 120.5,286.5 126.5,286.5C 126.5,289.5 126.5,292.5 126.5,295.5C 115.833,296.167 115.833,296.833 126.5,297.5C 126.5,299.833 126.5,302.167 126.5,304.5C 124.5,304.5 122.5,304.5 120.5,304.5 Z"/></g>
<g><path style="opacity:1" fill="#dedede" d="M 28.5,336.5 C 28.5,339.167 28.5,341.833 28.5,344.5C 47.8333,344.5 67.1667,344.5 86.5,344.5C 86.5,341.833 86.5,339.167 86.5,336.5C 84.076,336.808 81.7427,336.474 79.5,335.5C 85.4632,334.504 91.4632,334.171 97.5,334.5C 97.8333,323.833 98.1667,323.833 98.5,334.5C 101.167,334.5 103.833,334.5 106.5,334.5C 107.167,323.833 107.833,323.833 108.5,334.5C 119.167,335.167 119.167,335.833 108.5,336.5C 108.5,339.5 108.5,342.5 108.5,345.5C 114.176,345.334 119.843,345.501 125.5,346C 119.509,346.499 113.509,346.666 107.5,346.5C 107.167,350.5 106.833,350.5 106.5,346.5C 100.5,346.5 94.5,346.5 88.5,346.5C 87.8333,350.5 87.1667,350.5 86.5,346.5C 80.5,346.5 74.5,346.5 68.5,346.5C 67.8333,350.5 67.1667,350.5 66.5,346.5C 60.5,346.5 54.5,346.5 48.5,346.5C 47.8333,350.5 47.1667,350.5 46.5,346.5C 40.5,346.5 34.5,346.5 28.5,346.5C 28.1667,350.5 27.8333,350.5 27.5,346.5C 21.1667,346.5 14.8333,346.5 8.5,346.5C 8.16667,350.5 7.83333,350.5 7.5,346.5C 4.83333,346.5 2.16667,346.5 -0.5,346.5C -0.5,345.833 -0.5,345.167 -0.5,344.5C 1.83333,344.5 4.16667,344.5 6.5,344.5C 6.83333,320.5 7.16667,320.5 7.5,344.5C 14.1667,344.5 20.8333,344.5 27.5,344.5C 27.1936,341.615 27.5269,338.948 28.5,336.5 Z"/></g>
<g><path style="opacity:1" fill="#fcfcfc" d="M 88.5,336.5 C 92.0297,335.989 95.1963,336.656 98,338.5C 100.456,336.679 103.289,336.012 106.5,336.5C 106.5,339.167 106.5,341.833 106.5,344.5C 100.5,344.5 94.5,344.5 88.5,344.5C 88.5,341.833 88.5,339.167 88.5,336.5 Z"/></g>
<g><path style="opacity:1" fill="#e2e2e2" d="M 126.5,248.5 C 138.943,253.719 151.609,258.386 164.5,262.5C 166.516,262.484 167.516,261.484 167.5,259.5C 168.451,260.919 168.784,262.585 168.5,264.5C 171.833,264.5 175.167,264.5 178.5,264.5C 178.5,268.167 178.5,271.833 178.5,275.5C 180.833,275.5 183.167,275.5 185.5,275.5C 185.183,272.428 185.516,269.428 186.5,266.5C 187.496,272.463 187.829,278.463 187.5,284.5C 193.5,284.5 199.5,284.5 205.5,284.5C 206.167,275.167 206.833,275.167 207.5,284.5C 218.167,285.167 218.167,285.833 207.5,286.5C 207.5,289.5 207.5,292.5 207.5,295.5C 210.572,295.183 213.572,295.516 216.5,296.5C 212.893,297.489 209.226,297.823 205.5,297.5C 205.5,293.833 205.5,290.167 205.5,286.5C 199.5,286.5 193.5,286.5 187.5,286.5C 187.5,289.5 187.5,292.5 187.5,295.5C 199.5,295.833 199.5,296.167 187.5,296.5C 187.5,302.5 187.5,308.5 187.5,314.5C 186.5,314.5 185.5,314.5 184.5,314.5C 184.334,319.844 184.501,325.177 185,330.5C 185.671,331.252 186.504,331.586 187.5,331.5C 187.5,332.5 187.5,333.5 187.5,334.5C 190.5,334.5 193.5,334.5 196.5,334.5C 196.5,331.833 196.5,329.167 196.5,326.5C 200.246,328.799 204.246,329.132 208.5,327.5C 207.631,329.717 207.298,332.05 207.5,334.5C 210.5,334.5 213.5,334.5 216.5,334.5C 216.833,323.833 217.167,323.833 217.5,334.5C 220.167,334.5 222.833,334.5 225.5,334.5C 225.187,331.753 225.52,329.086 226.5,326.5C 227.484,329.428 227.817,332.428 227.5,335.5C 238.167,335.833 238.167,336.167 227.5,336.5C 227.5,339.167 227.5,341.833 227.5,344.5C 233.5,344.5 239.5,344.5 245.5,344.5C 245.833,333.833 246.167,333.833 246.5,344.5C 252.833,344.5 259.167,344.5 265.5,344.5C 265.5,341.833 265.5,339.167 265.5,336.5C 262.833,336.5 260.167,336.5 257.5,336.5C 256.833,340.5 256.167,340.5 255.5,336.5C 244.833,336.167 244.833,335.833 255.5,335.5C 255.5,332.5 255.5,329.5 255.5,326.5C 252.167,326.5 248.833,326.5 245.5,326.5C 245.5,323.5 245.5,320.5 245.5,317.5C 243.833,317.5 242.167,317.5 240.5,317.5C 243.432,316.2 245.766,314.2 247.5,311.5C 246.92,315.81 246.586,320.143 246.5,324.5C 252.868,324.17 259.202,324.504 265.5,325.5C 267.26,328.212 267.927,331.212 267.5,334.5C 278.167,334.833 278.167,335.167 267.5,335.5C 267.5,338.5 267.5,341.5 267.5,344.5C 273.5,344.5 279.5,344.5 285.5,344.5C 285.334,338.491 285.501,332.491 286,326.5C 286.497,329.146 286.664,331.813 286.5,334.5C 289.5,334.5 292.5,334.5 295.5,334.5C 296.167,323.833 296.833,323.833 297.5,334.5C 306.833,335.167 306.833,335.833 297.5,336.5C 296.833,340.5 296.167,340.5 295.5,336.5C 292.5,336.5 289.5,336.5 286.5,336.5C 286.5,339.167 286.5,341.833 286.5,344.5C 292.833,344.5 299.167,344.5 305.5,344.5C 305.833,333.833 306.167,333.833 306.5,344.5C 313.167,344.5 319.833,344.5 326.5,344.5C 332.5,344.5 338.5,344.5 344.5,344.5C 346.5,344.5 348.5,344.5 350.5,344.5C 350.5,348.167 350.5,351.833 350.5,355.5C 233.5,355.5 116.5,355.5 -0.5,355.5C -0.5,353.833 -0.5,352.167 -0.5,350.5C 115.834,350.667 232.167,350.5 348.5,350C 349.337,348.989 349.67,347.822 349.5,346.5C 348.5,346.5 347.5,346.5 346.5,346.5C 345.833,350.5 345.167,350.5 344.5,346.5C 338.5,346.5 332.5,346.5 326.5,346.5C 325.833,350.5 325.167,350.5 324.5,346.5C 318.5,346.5 312.5,346.5 306.5,346.5C 306.167,350.5 305.833,350.5 305.5,346.5C 299.167,346.5 292.833,346.5 286.5,346.5C 286.167,350.5 285.833,350.5 285.5,346.5C 279.167,346.5 272.833,346.5 266.5,346.5C 266.167,350.5 265.833,350.5 265.5,346.5C 259.167,346.5 252.833,346.5 246.5,346.5C 246.167,350.5 245.833,350.5 245.5,346.5C 239.5,346.5 233.5,346.5 227.5,346.5C 226.833,350.5 226.167,350.5 225.5,346.5C 219.5,346.5 213.5,346.5 207.5,346.5C 206.833,350.5 206.167,350.5 205.5,346.5C 199.5,346.5 193.5,346.5 187.5,346.5C 186.833,350.5 186.167,350.5 185.5,346.5C 179.5,346.5 173.5,346.5 167.5,346.5C 167.167,350.5 166.833,350.5 166.5,346.5C 160.167,346.5 153.833,346.5 147.5,346.5C 147.649,347.552 147.483,348.552 147,349.5C 146.691,348.234 146.191,347.067 145.5,346C 139.833,345.667 134.167,345.333 128.5,345C 134.491,344.501 140.491,344.334 146.5,344.5C 146.5,341.833 146.5,339.167 146.5,336.5C 143.833,336.5 141.167,336.5 138.5,336.5C 138.719,337.675 138.386,338.675 137.5,339.5C 136.571,338.311 136.238,336.978 136.5,335.5C 125.833,335.167 125.833,334.833 136.5,334.5C 136.5,332.167 136.5,329.833 136.5,327.5C 137.5,327.5 138.5,327.5 139.5,327.5C 140.388,322.996 141.388,318.496 142.5,314C 142.167,313.167 141.833,312.333 141.5,311.5C 137.552,310.042 133.552,308.709 129.5,307.5C 128.5,307.833 127.833,308.5 127.5,309.5C 130.211,311.276 133.211,312.609 136.5,313.5C 134.429,314.809 131.929,315.475 129,315.5C 126.31,315.497 123.81,315.164 121.5,314.5C 123.11,310.951 122.777,307.617 120.5,304.5C 122.5,304.5 124.5,304.5 126.5,304.5C 126.5,302.167 126.5,299.833 126.5,297.5C 115.833,296.833 115.833,296.167 126.5,295.5C 126.5,292.5 126.5,289.5 126.5,286.5C 120.5,286.5 114.5,286.5 108.5,286.5C 108.5,289.5 108.5,292.5 108.5,295.5C 105.833,295.5 103.167,295.5 100.5,295.5C 99.8333,295.5 99.5,295.167 99.5,294.5C 101.833,294.5 104.167,294.5 106.5,294.5C 106.5,291.833 106.5,289.167 106.5,286.5C 104.076,286.808 101.743,286.474 99.5,285.5C 109.167,284.167 118.833,284.167 128.5,285.5C 127.583,288.758 127.249,292.091 127.5,295.5C 139.5,296.167 139.5,296.833 127.5,297.5C 127.5,299.833 127.5,302.167 127.5,304.5C 137.167,304.5 146.833,304.5 156.5,304.5C 156.5,307.833 156.5,311.167 156.5,314.5C 158.833,314.5 161.167,314.5 163.5,314.5C 162.542,315.962 161.376,317.295 160,318.5C 159.506,320.134 159.34,321.801 159.5,323.5C 162.167,323.5 164.833,323.5 167.5,323.5C 167.972,321.469 168.972,319.802 170.5,318.5C 172.95,318.874 173.95,320.374 173.5,323C 173.151,328.09 170.485,329.757 165.5,328C 164.347,326.117 162.681,325.284 160.5,325.5C 159.965,328.238 160.965,330.072 163.5,331C 174.785,333.96 179.285,329.793 177,318.5C 175.544,316.535 173.71,315.201 171.5,314.5C 173.167,314.5 174.833,314.5 176.5,314.5C 176.5,311.167 176.5,307.833 176.5,304.5C 179.5,304.5 182.5,304.5 185.5,304.5C 185.5,295.5 185.5,286.5 185.5,277.5C 183.167,277.5 180.833,277.5 178.5,277.5C 177.833,286.833 177.167,286.833 176.5,277.5C 170.5,277.5 164.5,277.5 158.5,277.5C 158.829,283.537 158.496,289.537 157.5,295.5C 156.516,292.572 156.183,289.572 156.5,286.5C 144.5,286.167 144.5,285.833 156.5,285.5C 156.5,282.833 156.5,280.167 156.5,277.5C 149.825,277.666 143.158,277.5 136.5,277C 125.854,276.171 125.854,275.671 136.5,275.5C 136.5,272.5 136.5,269.5 136.5,266.5C 130.5,266.5 124.5,266.5 118.5,266.5C 118.167,278.5 117.833,278.5 117.5,266.5C 114.482,266.335 111.482,266.502 108.5,267C 107.718,269.74 107.218,272.574 107,275.5C 106.501,271.848 106.335,268.182 106.5,264.5C 113.18,264.612 119.847,264.946 126.5,265.5C 126.5,259.833 126.5,254.167 126.5,248.5 Z"/></g>
<g><path style="opacity:1" fill="#fcfcfc" d="M 207.5,336.5 C 211.03,335.989 214.196,336.656 217,338.5C 219.456,336.679 222.289,336.012 225.5,336.5C 225.5,339.167 225.5,341.833 225.5,344.5C 219.5,344.5 213.5,344.5 207.5,344.5C 207.5,341.833 207.5,339.167 207.5,336.5 Z"/></g>
<g><path style="opacity:1" fill="#fcfcfc" d="M 187.5,336.5 C 191.03,335.989 194.196,336.656 197,338.5C 199.456,336.679 202.289,336.012 205.5,336.5C 205.5,339.167 205.5,341.833 205.5,344.5C 199.5,344.5 193.5,344.5 187.5,344.5C 187.5,341.833 187.5,339.167 187.5,336.5 Z"/></g>
<g><path style="opacity:1" fill="#fcfcfc" d="M 167.5,336.5 C 170.5,336.5 173.5,336.5 176.5,336.5C 177.167,340.5 177.833,340.5 178.5,336.5C 180.833,336.5 183.167,336.5 185.5,336.5C 185.5,339.167 185.5,341.833 185.5,344.5C 179.5,344.5 173.5,344.5 167.5,344.5C 167.5,341.833 167.5,339.167 167.5,336.5 Z"/></g>
<g><path style="opacity:1" fill="#fcfcfc" d="M 147.5,336.5 C 150.5,336.5 153.5,336.5 156.5,336.5C 157.167,340.5 157.833,340.5 158.5,336.5C 160.833,336.5 163.167,336.5 165.5,336.5C 165.5,339.167 165.5,341.833 165.5,344.5C 159.5,344.5 153.5,344.5 147.5,344.5C 147.5,341.833 147.5,339.167 147.5,336.5 Z"/></g>
<g><path style="opacity:1" fill="#dcdcdc" d="M 203.5,321.5 C 205.167,321.5 206.833,321.5 208.5,321.5C 208.5,322.5 208.5,323.5 208.5,324.5C 206.139,324.674 203.806,325.007 201.5,325.5C 201.527,323.801 202.194,322.467 203.5,321.5 Z"/></g>
<g><path style="opacity:1" fill="#d2d2d2" d="M 202.5,314.5 C 204.167,314.5 205.833,314.5 207.5,314.5C 207.5,315.833 207.5,317.167 207.5,318.5C 204.833,318.833 202.167,319.167 199.5,319.5C 199.5,318.167 199.5,316.833 199.5,315.5C 200.791,315.737 201.791,315.404 202.5,314.5 Z"/></g>



</svg>
