<?xml version="1.0" standalone="no"?>
<!DOCTYPE svg PUBLIC "-//W3C//DTD SVG 20010904//EN"
 "http://www.w3.org/TR/2001/REC-SVG-20010904/DTD/svg10.dtd">
<svg version="1.0" xmlns="http://www.w3.org/2000/svg"
 width="50.000000pt" height="50.000000pt" viewBox="0 0 50.000000 50.000000"
 preserveAspectRatio="xMidYMid meet">

<g transform="translate(0.000000,50.000000) scale(0.100000,-0.100000)"
fill="white" stroke="none">
<path d="M237 445 c-7 -66 -38 -115 -73 -115 -20 0 -31 -15 -75 -105 -29 -58
-50 -107 -48 -109 3 -3 27 -6 54 -8 45 -3 49 -5 57 -34 4 -17 17 -39 28 -49
20 -18 75 -30 64 -14 -3 5 -11 9 -18 9 -18 0 -56 43 -56 63 0 15 12 17 90 17
99 0 107 -6 69 -54 -18 -22 -18 -26 -4 -26 10 0 23 16 33 39 18 41 34 51 89
51 l31 0 -19 51 c-11 28 -33 77 -49 110 -24 46 -35 59 -53 59 -35 0 -68 51
-74 116 -5 42 -10 54 -23 54 -13 0 -18 -12 -23 -55z m168 -212 c16 -32 30 -61
32 -65 2 -5 0 -8 -5 -8 -11 0 -62 93 -62 114 0 26 6 19 35 -41z"/>
</g>
</svg>
