<?xml version="1.0" standalone="no"?>
<!DOCTYPE svg PUBLIC "-//W3C//DTD SVG 20010904//EN"
        "http://www.w3.org/TR/2001/REC-SVG-20010904/DTD/svg10.dtd">
<svg version="1.0" xmlns="http://www.w3.org/2000/svg"
     width="240.000000pt" height="220.000000pt" viewBox="0 0 240.000000 220.000000"
     preserveAspectRatio="xMidYMid meet">

    <g transform="translate(0.000000,220.000000) scale(0.100000,-0.100000)"
       fill="white" stroke="none">
        <path d="M370 2100 c0 -5 -6 -10 -14 -10 -7 0 -16 -14 -20 -31 -3 -17 -6 -449
-6 -960 l0 -929 95 0 95 0 0 933 c0 615 -4 945 -11 970 l-10 37 -64 0 c-37 0
-65 -4 -65 -10z"/>
        <path d="M1901 2073 c-7 -25 -11 -355 -11 -970 l0 -933 95 0 95 0 0 933 c0
615 -4 945 -11 970 l-10 37 -74 0 -74 0 -10 -37z"/>
        <path d="M90 1605 l0 -45 95 0 95 0 0 45 0 45 -95 0 -95 0 0 -45z"/>
        <path d="M570 1605 l0 -45 635 0 635 0 0 45 0 45 -635 0 -635 0 0 -45z"/>
        <path d="M2120 1605 l0 -45 90 0 90 0 0 45 0 45 -90 0 -90 0 0 -45z"/>
        <path d="M570 1500 c0 -26 5 -31 30 -36 17 -4 30 -13 30 -20 0 -8 5 -14 10
-14 6 0 10 -6 10 -13 0 -8 11 -20 25 -27 14 -7 25 -19 25 -27 0 -7 14 -16 30
-19 17 -4 30 -12 30 -20 0 -7 9 -16 20 -19 11 -3 20 -13 20 -22 0 -8 14 -20
30 -26 17 -6 30 -17 30 -24 0 -7 6 -13 14 -13 8 0 18 -9 21 -20 3 -11 12 -20
19 -20 26 0 65 -26 68 -45 2 -11 11 -21 21 -23 22 -4 67 -45 67 -61 0 -19 22
-37 55 -45 16 -4 24 -10 18 -14 -6 -4 -13 -17 -17 -29 -4 -13 -11 -23 -17 -23
-14 0 -49 -33 -49 -47 0 -7 -16 -15 -35 -19 -21 -4 -37 -13 -40 -25 -4 -10
-10 -19 -14 -19 -4 0 -13 -11 -19 -25 -8 -17 -20 -25 -37 -25 -14 0 -25 -4
-25 -10 0 -15 -33 -50 -47 -50 -7 0 -13 -4 -13 -10 0 -5 -11 -12 -25 -16 -15
-4 -25 -13 -25 -24 0 -10 -9 -22 -20 -25 -11 -3 -20 -10 -20 -14 0 -5 -14 -14
-30 -21 -18 -8 -30 -20 -30 -31 0 -11 -6 -19 -14 -19 -8 0 -21 -6 -28 -13 -7
-7 -21 -16 -30 -20 -10 -3 -18 -13 -18 -22 0 -8 -4 -15 -10 -15 -5 0 -10 -7
-10 -15 0 -11 11 -15 39 -15 41 0 71 20 71 46 0 8 8 14 18 14 11 0 29 9 42 20
13 11 27 20 32 20 4 0 8 9 8 19 0 13 11 23 36 31 41 14 71 40 76 67 2 10 13
19 26 21 12 2 22 7 22 12 0 5 9 12 20 15 11 3 23 17 26 31 4 15 13 24 25 24
11 0 22 7 25 15 4 8 11 15 18 15 6 0 18 9 26 20 8 11 18 20 22 20 11 0 48 38
48 49 0 13 26 21 67 21 26 0 36 -5 40 -20 3 -10 14 -22 24 -25 10 -4 19 -11
19 -16 0 -5 6 -9 14 -9 8 0 18 -9 21 -20 3 -11 13 -20 21 -20 8 0 14 -4 14
-10 0 -5 9 -10 20 -10 13 0 24 -10 31 -27 12 -31 26 -43 53 -43 21 0 45 -27
46 -52 0 -9 9 -20 20 -23 11 -3 20 -10 20 -14 0 -4 18 -14 40 -21 28 -9 40
-19 40 -32 0 -10 8 -22 18 -25 9 -4 21 -12 25 -20 4 -7 16 -13 26 -13 11 0 21
-10 25 -24 6 -24 30 -36 79 -36 17 0 27 5 27 15 0 8 -3 15 -8 15 -4 0 -13 13
-20 30 -10 22 -22 31 -48 36 -25 4 -34 11 -34 25 0 12 -10 23 -25 29 -14 5
-25 14 -25 19 0 6 -16 13 -35 17 -23 4 -35 12 -35 23 -1 19 -23 51 -37 51 -15
0 -53 35 -53 49 0 6 -13 14 -30 17 -16 4 -32 15 -35 25 -4 11 -10 19 -15 19
-5 0 -12 9 -15 20 -4 12 -15 20 -28 20 -28 0 -39 8 -56 43 -8 15 -18 27 -23
27 -13 0 -38 26 -38 39 0 6 -6 11 -12 12 -7 0 -3 5 10 11 12 6 22 15 22 20 0
4 9 8 19 8 13 0 21 8 23 23 2 15 13 25 36 32 23 6 34 17 38 35 10 46 14 52 29
46 8 -3 15 -1 15 4 0 6 11 10 24 10 16 0 27 7 31 20 3 11 11 20 16 20 5 0 9 7
9 15 0 9 13 18 31 22 19 3 34 14 36 25 3 10 12 18 20 18 8 0 17 9 20 19 3 12
17 21 38 25 22 4 35 13 38 27 3 11 15 23 26 26 12 3 21 12 21 19 0 8 7 14 15
14 8 0 15 6 15 14 0 8 9 18 20 21 28 9 28 65 0 65 -11 0 -20 -7 -20 -15 0 -10
-10 -15 -28 -15 -16 0 -32 -8 -40 -20 -7 -11 -19 -20 -26 -20 -8 0 -17 -13
-21 -30 -5 -24 -13 -31 -41 -36 -25 -4 -38 -14 -44 -30 -5 -13 -16 -24 -25
-24 -8 0 -15 -7 -15 -15 0 -8 -11 -17 -24 -21 -13 -3 -26 -14 -29 -25 -3 -11
-14 -19 -27 -19 -13 0 -24 -8 -27 -20 -3 -11 -9 -20 -13 -20 -5 0 -12 -9 -15
-20 -4 -11 -15 -20 -26 -20 -32 0 -59 -19 -59 -41 0 -12 -8 -23 -20 -26 -11
-3 -20 -9 -20 -14 0 -5 -6 -9 -13 -9 -27 0 -67 -26 -67 -42 0 -10 -7 -18 -15
-18 -8 0 -15 9 -15 19 0 13 -11 24 -35 32 -19 7 -35 16 -35 20 0 4 -11 10 -25
13 -16 4 -25 13 -25 26 0 21 -28 40 -59 40 -12 0 -21 4 -21 9 0 5 -6 16 -12
23 -7 8 -18 23 -24 33 -6 11 -23 21 -38 23 -14 2 -26 9 -26 17 0 7 -7 15 -15
19 -8 3 -15 12 -15 20 0 7 -11 17 -24 20 -13 3 -26 14 -28 24 -3 11 -18 21
-37 25 -18 4 -31 13 -31 22 0 8 -4 15 -10 15 -5 0 -10 6 -10 14 0 7 -15 20
-32 27 -37 15 -58 32 -58 48 0 6 -13 11 -30 11 -27 0 -30 -3 -30 -30z"/>
        <path d="M1430 1140 c0 -11 5 -20 10 -20 6 0 10 9 10 20 0 11 -4 20 -10 20 -5
0 -10 -9 -10 -20z"/>
        <path d="M90 365 l0 -55 95 0 95 0 0 55 0 55 -95 0 -95 0 0 -55z"/>
        <path d="M570 365 l0 -55 635 0 635 0 0 55 0 55 -635 0 -635 0 0 -55z"/>
        <path d="M2120 365 l0 -55 90 0 90 0 0 55 0 55 -90 0 -90 0 0 -55z"/>
    </g>
</svg>
