<?xml version="1.0" standalone="no"?>
<!DOCTYPE svg PUBLIC "-//W3C//DTD SVG 20010904//EN"
 "http://www.w3.org/TR/2001/REC-SVG-20010904/DTD/svg10.dtd">
<svg version="1.0" xmlns="http://www.w3.org/2000/svg"
 width="61.000000pt" height="51.000000pt" viewBox="0 0 61.000000 51.000000"
 preserveAspectRatio="xMidYMid meet">

<g transform="translate(0.000000,51.000000) scale(0.100000,-0.100000)"
fill="white" stroke="none">
<path d="M100 421 l-75 -6 -3 -102 -3 -103 86 0 85 0 0 110 c0 61 -3 109 -7
108 -5 -1 -42 -4 -83 -7z"/>
<path d="M435 422 c-3 -3 -5 -52 -5 -109 l0 -103 84 0 85 0 -3 28 c-2 15 -4
64 -5 110 l-1 83 -75 -2 c-41 -1 -77 -4 -80 -7z"/>
<path d="M200 315 l0 -105 110 0 110 0 0 105 0 105 -110 0 -110 0 0 -105z"/>
<path d="M40 189 c0 -6 4 -18 9 -27 8 -15 32 -17 263 -12 l253 5 3 23 3 22
-265 0 c-182 0 -266 -3 -266 -11z"/>
</g>
</svg>
