<?xml version="1.0" standalone="no"?>
<!DOCTYPE svg PUBLIC "-//W3C//DTD SVG 20010904//EN"
 "http://www.w3.org/TR/2001/REC-SVG-20010904/DTD/svg10.dtd">
<svg version="1.0" xmlns="http://www.w3.org/2000/svg"
 width="50.000000pt" height="50.000000pt" viewBox="0 0 50.000000 50.000000"
 preserveAspectRatio="xMidYMid meet">

<g transform="translate(0.000000,50.000000) scale(0.100000,-0.100000)"
fill="white" stroke="none">
<path d="M225 480 c-202 -5 -210 -6 -210 -25 0 -19 6 -20 140 -18 77 1 182 2
233 3 85 0 92 1 92 20 0 11 -4 20 -9 20 -5 0 -15 1 -23 3 -7 1 -107 0 -223 -3z"/>
<path d="M323 413 c-76 -4 -83 -6 -83 -24 0 -16 4 -19 21 -14 12 4 64 8 115 9
52 1 97 6 101 10 11 11 -19 26 -47 24 -14 -1 -62 -4 -107 -5z"/>
<path d="M335 360 c-173 -7 -167 -24 10 -28 113 -2 135 0 135 12 0 8 -3 16 -7
18 -5 2 -66 1 -138 -2z"/>
<path d="M308 312 c-131 -2 -158 -5 -158 -17 0 -22 315 -22 323 0 4 8 3 16 -1
17 -4 2 -78 2 -164 0z"/>
<path d="M189 260 c-186 -5 -186 -5 -178 -27 7 -20 13 -21 101 -18 51 2 148 5
215 6 122 2 164 12 149 37 -4 7 -27 11 -54 10 -26 -1 -131 -5 -233 -8z"/>
<path d="M12 184 c3 -14 19 -16 118 -15 63 1 116 4 118 6 2 2 1 8 -3 14 -4 7
-51 11 -121 11 -101 0 -115 -2 -112 -16z"/>
<path d="M20 140 c-30 -20 8 -25 154 -22 119 2 146 6 146 18 0 11 -25 14 -142
14 -79 0 -150 -5 -158 -10z"/>
<path d="M173 93 c-143 -3 -163 -6 -163 -20 0 -14 11 -15 97 -10 54 4 160 7
236 7 115 0 137 2 137 15 0 12 -14 15 -72 13 -40 -1 -146 -4 -235 -5z"/>
<path d="M438 55 c-2 -1 -97 -5 -211 -8 -115 -3 -211 -7 -214 -10 -3 -3 -2
-11 2 -17 4 -7 60 -9 183 -5 97 3 201 5 230 5 44 0 53 3 50 17 -3 14 -30 27
-40 18z"/>
</g>
</svg>
