<?xml version="1.0" standalone="no"?>
<!DOCTYPE svg PUBLIC "-//W3C//DTD SVG 20010904//EN"
        "http://www.w3.org/TR/2001/REC-SVG-20010904/DTD/svg10.dtd">
<svg version="1.0" xmlns="http://www.w3.org/2000/svg"
     width="840.000000pt" height="1040.000000pt" viewBox="0 0 840.000000 1040.000000"
     preserveAspectRatio="xMidYMid meet">

    <g transform="translate(0.000000,1040.000000) scale(0.100000,-0.100000)"
       fill="white" stroke="none">
        <path d="M7380 9884 c-332 -209 -1742 -1107 -5132 -3268 l-1598 -1018 0 -410
c0 -356 2 -409 15 -405 18 7 338 209 764 481 178 114 325 206 326 204 2 -2 8
-554 14 -1227 6 -674 12 -1226 14 -1227 1 -1 103 -3 227 -5 l225 -4 5 1390 5
1389 858 548 c473 301 863 548 868 548 5 0 9 -408 9 -998 0 -549 3 -1114 7
-1255 l6 -257 229 0 228 0 0 1413 1 1412 377 240 c588 373 1262 799 1313 828
l46 27 6 -67 c4 -38 7 -631 7 -1319 l0 -1252 66 -7 c37 -4 142 -4 235 0 l169
8 0 672 c0 369 3 1036 7 1481 l7 809 525 335 526 336 3 319 c1 176 -1 360 -5
408 l-8 88 -345 -217z"/>
        <path d="M5000 5167 l0 -157 983 0 c541 0 1160 3 1375 7 l392 6 0 144 0 143
-443 0 c-244 0 -863 3 -1375 7 l-932 6 0 -156z"/>
        <path d="M5354 4823 l-91 -4 -6 -82 c-4 -45 -7 -234 -7 -419 l0 -338 -1235 0
-1235 0 0 -145 0 -145 1235 0 1235 0 0 -100 0 -100 -1100 0 -1100 0 0 -400 0
-400 -1205 0 -1205 0 0 -145 0 -145 1205 0 1205 0 0 -95 0 -95 -1065 0 c-843
0 -1067 -3 -1070 -12 -3 -7 -4 -438 -3 -956 l3 -944 365 220 c457 274 1208
728 4100 2477 1262 763 2314 1400 2338 1414 l43 26 -7 190 c-3 105 -8 192 -10
194 -5 5 -2272 9 -2390 4z"/>
    </g>
</svg>
