<?xml version="1.0" standalone="no"?>
<!DOCTYPE svg PUBLIC "-//W3C//DTD SVG 20010904//EN"
 "http://www.w3.org/TR/2001/REC-SVG-20010904/DTD/svg10.dtd">
<svg version="1.0" xmlns="http://www.w3.org/2000/svg"
 width="436.000000pt" height="594.000000pt" viewBox="0 0 436.000000 594.000000"
 preserveAspectRatio="xMidYMid meet">

<g transform="translate(0.000000,594.000000) scale(0.100000,-0.100000)"
fill="white" stroke="none">
<path d="M2060 4893 l-1 -1048 -38 -26 c-53 -37 -91 -116 -91 -190 l0 -57 -45
-27 c-61 -35 -142 -119 -182 -186 -28 -47 -50 -114 -68 -211 l-5 -28 -233 0
-232 0 -270 -572 c-148 -315 -301 -640 -341 -723 -154 -325 -284 -603 -284
-609 0 -3 224 -7 498 -8 l497 -3 8 -78 c30 -310 263 -613 559 -727 120 -46
208 -62 343 -62 205 0 381 59 544 183 197 148 326 373 349 609 l7 75 503 3
c291 1 502 6 502 11 0 5 -63 141 -139 303 -165 347 -553 1169 -672 1421 l-83
177 -248 0 -248 0 0 28 c0 41 -26 128 -55 188 -34 69 -114 157 -185 203 l-55
36 3 59 c4 83 -32 155 -99 199 l-49 32 0 1038 0 1037 -95 0 -95 0 0 -1047z
m-775 -2197 c18 -13 17 -17 -27 -107 -80 -163 -465 -890 -482 -910 -13 -16
-20 -17 -36 -9 -11 6 -20 18 -20 28 0 19 493 967 518 995 18 21 23 21 47 3z
m1665 -1556 c0 -47 -38 -176 -71 -241 -110 -219 -279 -357 -514 -420 -120 -32
-290 -30 -408 5 -223 66 -388 201 -487 396 -34 66 -70 177 -77 237 l-6 53 764
2 c420 2 772 1 782 -1 11 -2 17 -13 17 -31z"/>
</g>
</svg>
