<svg id="logo-circle" width="250" height="250" viewBox="0 0 250 250" version="1.1" xmlns="http://www.w3.org/2000/svg">
<rect xmlns="http://www.w3.org/2000/svg" width="100%" height="100%" fill="url(#g34r76i4d)" id="g34r76i4d_r">
</rect>
<circle class="Rang" layer="0" id="Rang0" cx="125" cy="125" r="122.5" fill="none" stroke="#1c1c1c" stroke-width="3"></circle>
<g id="RangText1" layer="1" font-size="40" font-style="normal" font-family="Comic Sans MS" fill="#1c1c1c" stroke="none" font-weight="bold" in="0" rad="119" cut="-61" len="122"><text transform="translate(55.91,86.70) rotate(-52.98)"><tspan>L</tspan></text><text transform="translate(67.25,71.10) rotate(-39.32)"><tspan>o</tspan></text><text transform="translate(81.19,59.26) rotate(-26.29)"><tspan>f</tspan></text><text transform="translate(96.82,51.20) rotate(-14.05)"><tspan>t</tspan></text><text transform="translate(112.37,47.02) rotate(6.06)"><tspan>W</tspan></text><text transform="translate(151.12,50.44) rotate(26.96)"><tspan>o</tspan></text><text transform="translate(167.57,58.45) rotate(40.26)"><tspan>o</tspan></text><text transform="translate(181.73,70.02) rotate(54.45)"><tspan>d</tspan></text></g>
<g id="RangText2" layer="2" font-size="38" font-style="normal" font-family="Comic Sans MS" fill="#1c1c1c" stroke="none" font-weight="bold" in="1" rad="110" cut="-148" len="72"><text transform="translate(71.74,210.23) rotate(25.62)"><tspan>d</tspan></text><text transform="translate(93.97,220.59) rotate(11.91)"><tspan>e</tspan></text><text transform="translate(116.98,225.18) rotate(-0.70)"><tspan>s</tspan></text><text transform="translate(137.68,224.70) rotate(-10.29)"><tspan>i</tspan></text><text transform="translate(150.32,222.26) rotate(-20.35)"><tspan>g</tspan></text><text transform="translate(171.21,214.25) rotate(-33.05)"><tspan>n</tspan></text></g>
<circle class="Rang" layer="3" id="Rang3" cx="125" cy="125" r="116.5" fill="none" stroke="#1c1c1c" stroke-width="1"></circle>
<g class="Img_l" layer="4" id="Img4" x="103" y="96" s="42" transform="matrix(0.42,0,0,0.42,50.50,43.50)" load="1">
<metadata>
</metadata>
<g transform="translate(0.000000,365.000000) scale(0.100000,-0.100000)" fill="#1c1c1c" stroke="none">
<path d="M1614 3142 c-22 -15 -34 -52 -34 -111 0 -74 -12 -107 -42 -116 -13
-4 -40 -22 -60 -39 -76 -63 -106 -86 -113 -86 -4 0 -25 -16 -46 -35 -48 -43
-131 -86 -161 -82 -18 1 -23 -4 -28 -27 -4 -21 -16 -35 -45 -51 -22 -12 -62
-34 -89 -48 -27 -15 -59 -27 -71 -27 -12 0 -30 -9 -40 -20 -10 -12 -34 -30
-53 -42 l-34 -21 -25 32 c-13 17 -28 31 -32 31 -4 0 -15 -26 -26 -57 -25 -77
-31 -83 -76 -83 -30 0 -42 -5 -55 -25 -11 -16 -26 -25 -43 -25 -34 0 -51 -17
-51 -50 0 -47 27 -61 265 -141 50 -17 108 -39 130 -50 22 -10 45 -19 50 -19 6
0 23 -13 38 -29 34 -37 87 -55 139 -48 32 4 37 3 28 -8 -17 -20 -3 -35 31 -35
16 0 64 -16 105 -35 41 -19 80 -35 86 -35 16 0 200 -61 213 -70 6 -4 30 -11
53 -15 24 -4 51 -16 60 -26 9 -10 22 -19 30 -19 7 0 23 -6 35 -14 12 -8 46
-19 76 -25 30 -6 61 -17 68 -23 7 -6 28 -18 46 -27 39 -20 44 -40 17 -71 -20
-23 -20 -25 -4 -37 24 -18 37 -16 67 7 26 21 67 27 67 10 0 -5 24 -10 54 -10
102 0 100 -46 -6 -116 -86 -56 -108 -56 -231 4 -45 22 -91 43 -102 46 -49 13
-127 44 -138 55 -6 6 -24 11 -39 11 -16 0 -45 8 -66 18 -20 11 -58 25 -85 32
-26 7 -50 17 -53 21 -3 5 -13 9 -23 9 -9 0 -32 11 -51 25 -19 14 -39 25 -46
25 -7 0 -39 17 -71 38 -32 21 -105 58 -163 81 -58 24 -110 47 -116 52 -23 19
-106 59 -121 59 -9 0 -35 8 -57 19 -23 10 -70 29 -106 41 -122 44 -177 79
-165 108 7 19 -21 62 -41 62 -9 0 -34 -14 -55 -31 -34 -26 -39 -36 -39 -70 0
-22 -5 -49 -11 -60 -5 -11 -11 -32 -13 -47 -2 -22 -6 -27 -28 -25 -34 2 -37
-13 -25 -107 15 -123 -2 -466 -27 -522 -6 -13 1 -26 23 -49 28 -28 31 -36 31
-95 0 -57 -2 -64 -20 -64 -11 0 -20 3 -20 8 0 4 -4 13 -9 21 -7 11 -13 10 -34
-4 -14 -9 -28 -23 -31 -31 -7 -18 51 -84 75 -84 13 0 22 -12 30 -41 15 -48 30
-57 62 -36 20 13 30 13 73 2 27 -7 65 -20 84 -28 19 -8 54 -18 78 -22 24 -4
46 -13 49 -21 3 -8 16 -14 29 -14 13 0 32 -8 42 -18 10 -10 26 -19 35 -19 9 0
31 -7 49 -15 18 -9 67 -31 108 -49 41 -18 138 -62 215 -99 198 -94 246 -111
281 -104 24 4 37 0 61 -20 31 -26 128 -76 149 -76 6 0 19 -9 29 -20 14 -16 20
-17 27 -8 6 10 10 10 17 0 4 -8 19 -12 32 -10 21 3 24 7 21 43 -2 27 -14 53
-36 80 -18 22 -37 54 -43 70 -10 32 -30 41 -68 31 -28 -7 -40 -38 -25 -66 13
-24 -2 -27 -24 -5 -12 12 -13 27 -8 68 4 28 7 70 7 91 0 37 -3 41 -49 68 -27
16 -79 41 -115 55 -104 39 -161 66 -194 90 -17 13 -55 32 -85 43 -30 11 -68
31 -85 43 -18 13 -77 45 -132 72 -199 95 -245 119 -245 128 0 4 5 17 10 27 7
13 7 34 1 61 -6 26 -5 85 2 166 9 96 8 128 -1 141 -17 24 -33 64 -30 74 2 4
21 -1 43 -12 21 -11 44 -20 51 -20 10 0 117 -49 154 -71 8 -5 26 -14 40 -19
14 -6 37 -17 52 -25 14 -8 31 -15 38 -15 6 0 23 -9 37 -20 14 -11 32 -20 40
-20 7 0 26 -8 40 -17 27 -18 59 -31 143 -60 25 -9 52 -22 61 -30 8 -7 21 -13
28 -13 7 0 29 -8 49 -19 54 -27 104 -49 131 -56 52 -15 187 -84 203 -104 10
-12 29 -21 44 -21 14 0 39 -10 54 -22 15 -13 35 -28 45 -34 16 -9 17 -16 8
-50 -5 -21 -8 -45 -5 -52 7 -22 57 -13 98 18 21 16 45 30 53 30 8 0 21 7 30
15 34 32 208 168 249 193 24 15 80 58 125 95 45 38 123 93 172 123 50 31 124
79 166 107 42 29 98 65 125 80 27 15 67 39 89 52 22 14 46 25 53 25 9 0 12
-49 12 -210 l0 -210 -32 -29 c-35 -30 -96 -77 -163 -124 -22 -15 -56 -39 -75
-52 -19 -13 -53 -38 -75 -55 -22 -17 -54 -38 -71 -48 -33 -18 -98 -60 -174
-112 -25 -17 -65 -44 -90 -60 -24 -15 -75 -55 -112 -87 -62 -52 -68 -61 -64
-88 20 -122 27 -149 42 -166 19 -22 57 -19 104 7 14 8 36 18 50 24 14 5 57 30
95 55 39 25 86 54 106 64 19 11 55 36 79 56 40 33 98 75 189 135 49 32 163
110 220 149 24 17 63 47 86 66 24 19 53 35 64 35 14 0 25 9 31 25 5 14 17 28
25 31 24 10 49 64 36 77 -12 12 -15 57 -3 57 4 0 7 53 8 118 2 257 20 560 33
576 9 11 11 28 6 53 -9 53 -10 111 0 156 l8 37 -45 0 c-26 0 -50 -6 -57 -13
-6 -8 -28 -19 -48 -25 -21 -6 -63 -27 -93 -47 -30 -19 -60 -35 -66 -35 -19 0
-124 -58 -159 -88 -18 -15 -87 -65 -154 -112 -67 -47 -152 -109 -189 -138 -37
-29 -79 -60 -94 -68 -15 -7 -57 -36 -93 -64 -36 -27 -70 -50 -75 -50 -4 0 -15
-3 -24 -6 -35 -14 -13 31 47 93 128 135 301 266 348 265 23 0 34 6 49 30 10
17 37 42 61 56 40 23 43 24 55 7 16 -22 34 -11 34 21 0 24 11 33 113 100 21
13 42 24 47 24 6 0 32 16 59 35 26 19 53 35 59 35 6 0 17 6 24 13 7 7 35 27
62 44 37 25 53 30 67 23 44 -24 51 -15 44 58 -4 37 -8 68 -9 69 -1 1 -58 7
-127 14 -68 6 -132 15 -141 20 -10 5 -23 9 -29 9 -6 0 -33 14 -60 32 -39 25
-49 37 -49 59 0 61 -36 84 -46 29 -4 -16 -10 -30 -13 -30 -4 0 -36 12 -72 26
-35 14 -86 34 -113 45 -27 10 -56 25 -66 34 -9 8 -22 15 -29 15 -7 0 -63 24
-124 54 -62 30 -123 57 -137 61 -14 4 -46 20 -71 36 -25 16 -70 37 -100 48
-30 10 -67 26 -84 35 -16 9 -35 16 -42 16 -6 0 -21 14 -33 30 -15 22 -30 30
-51 30 -16 0 -38 9 -48 19 -10 10 -29 22 -40 26 -12 3 -29 17 -37 31 -24 36
-55 32 -125 -18 -13 -9 -37 -20 -53 -24 -28 -7 -28 -6 -21 27 4 19 12 40 17
47 6 7 6 12 1 12 -5 0 -13 11 -19 25 -5 15 -13 22 -20 17z m120 -211 c9 -10
17 -31 17 -47 1 -16 3 -92 5 -168 4 -108 2 -141 -8 -148 -11 -6 -11 -10 0 -17
10 -6 12 -29 9 -92 -7 -101 -6 -59 -7 -384 -1 -148 -3 -271 -4 -272 -3 -3
-135 36 -154 46 -11 6 -33 11 -49 11 -15 0 -42 8 -58 18 -17 11 -48 22 -70 26
-22 4 -51 15 -65 24 -26 18 -75 38 -125 52 -33 9 -133 51 -152 63 -8 5 -13 33
-13 75 0 37 -7 130 -15 207 -21 202 -23 191 32 225 26 17 51 30 55 30 5 0 8
-19 7 -42 -3 -83 14 -403 22 -425 9 -24 39 -32 39 -10 0 6 -5 122 -10 255 -6
134 -8 252 -5 262 3 10 20 24 38 31 18 7 54 28 80 46 27 19 51 33 53 30 2 -2
1 -25 -2 -50 -7 -45 -16 -58 -29 -37 -3 6 -21 10 -40 10 -25 0 -35 -5 -40 -20
-3 -11 -4 -24 -1 -29 3 -5 10 -131 15 -281 5 -149 12 -274 15 -277 3 -3 12 0
21 7 11 9 15 33 15 92 0 44 5 89 12 101 7 12 13 33 15 47 1 14 4 50 8 80 3 30
7 84 9 118 2 35 9 69 15 75 27 27 33 -14 40 -265 l6 -253 24 -3 23 -4 -5 244
c-4 133 -9 297 -13 364 l-7 121 64 51 c35 29 67 52 71 52 5 0 8 -78 9 -172 2
-625 3 -642 22 -646 16 -3 17 12 17 216 0 120 3 314 7 430 l6 212 31 20 c39
25 49 25 70 1z m156 -47 c39 -16 40 -18 40 -63 0 -26 -6 -55 -13 -66 -7 -11
-14 -42 -15 -69 -1 -39 1 -47 13 -42 13 5 15 -30 15 -262 0 -147 1 -355 2
-462 1 -107 -2 -194 -5 -192 -4 1 -12 4 -19 6 -62 18 -95 35 -105 56 -14 27
-14 87 5 625 6 160 11 334 11 388 1 109 1 109 71 81z m365 -114 c89 -44 185
-84 212 -89 27 -6 89 -30 138 -54 50 -25 119 -57 155 -72 60 -24 100 -55 100
-76 0 -5 -17 1 -37 14 -21 13 -50 27 -64 30 -14 4 -52 22 -84 42 -33 19 -67
35 -76 35 -10 0 -21 5 -24 11 -4 5 -14 9 -23 7 -40 -8 -61 -288 -38 -503 l15
-140 -37 -32 c-20 -18 -47 -33 -59 -33 -12 0 -29 -7 -37 -16 -14 -14 -15 6
-12 203 3 141 8 229 16 248 7 17 14 46 15 65 2 19 6 61 9 93 3 31 3 57 0 57
-18 0 -44 -23 -44 -40 0 -10 -9 -40 -21 -67 -19 -44 -22 -72 -27 -340 -5 -278
-6 -293 -24 -299 -27 -8 -33 1 -33 49 0 34 -3 41 -17 39 -15 -2 -18 5 -18 38
0 31 4 40 18 41 14 1 14 2 1 6 -14 3 -17 40 -22 281 -4 182 -3 291 4 317 19
74 18 80 -21 80 l-35 0 -7 -70 c-3 -38 -2 -155 3 -260 6 -143 6 -488 0 -598
-1 -4 -18 -16 -39 -25 -22 -10 -47 -25 -56 -35 -21 -20 -46 -22 -71 -3 -27 20
-30 82 -29 629 2 502 4 524 41 510 13 -5 15 -18 10 -77 -5 -51 -2 -84 9 -116
19 -56 38 -583 22 -614 -7 -12 -6 -22 1 -29 14 -14 14 -64 1 -72 -8 -5 -8 -11
-1 -19 6 -6 11 -45 13 -86 l3 -74 34 30 35 31 -12 99 c-23 196 -38 869 -20
880 5 4 23 -3 39 -15 15 -11 36 -21 45 -21 10 0 28 -10 41 -22 l23 -21 0 21
c0 12 -3 22 -8 22 -4 0 -34 18 -67 40 -33 22 -70 40 -81 40 -23 0 -48 23 -37
33 9 10 1 13 178 -73z m456 -253 c64 -31 121 -63 128 -71 10 -12 10 -28 -3
-79 -9 -35 -16 -93 -16 -129 l0 -66 -56 -37 c-30 -20 -57 -35 -60 -32 -3 2 0
25 6 50 5 25 7 59 4 75 -3 17 -1 45 4 64 6 18 14 66 17 106 7 68 6 74 -11 70
-14 -2 -22 -19 -32 -63 -7 -33 -18 -63 -24 -66 -7 -5 -13 -59 -16 -148 l-5
-141 -28 -21 c-16 -11 -29 -19 -29 -17 -18 112 -17 572 0 563 3 -1 57 -27 121
-58z m-1718 -199 c10 -101 17 -198 17 -216 l0 -32 -32 13 c-31 13 -33 16 -35
73 -2 32 -7 113 -11 179 -8 113 -8 121 11 143 11 12 23 22 27 22 3 0 14 -82
23 -182z m-108 -35 c8 -149 4 -164 -32 -120 -10 12 -30 30 -45 40 -26 16 -28
22 -28 85 0 37 3 76 6 87 5 21 74 66 85 56 4 -3 10 -70 14 -148z m2112 106
c35 -17 63 -33 63 -37 0 -11 -33 -42 -45 -42 -7 0 -20 -9 -30 -20 -10 -11 -23
-20 -30 -20 -7 0 -20 -9 -30 -20 -25 -28 -49 -26 -42 3 4 12 11 55 18 95 7 39
17 72 22 72 6 0 39 -14 74 -31z m-2381 -1458 c38 -16 83 -36 99 -45 17 -9 35
-16 41 -16 18 0 211 -87 281 -126 34 -19 68 -44 74 -55 23 -43 29 -46 -346
136 -82 40 -174 81 -202 91 -52 18 -60 24 -46 37 11 12 28 8 99 -22z"></path>
</g>
</g>
<text x="38" y="120" id="Text5" layer="5" fill="#1c1c1c" stroke="none" font-size="28" font-family="Arial" font-style="normal" font-weight="bold"><tspan dy="8.37" text-anchor="middle">__</tspan>
</text><text x="215" y="120" id="Text6" layer="6" fill="#1c1c1c" stroke="none" font-size="28" font-family="Arial" font-style="normal" font-weight="bold"><tspan dy="8.37" text-anchor="middle">__</tspan></text></svg>