<?xml version="1.0" standalone="no"?>
<!DOCTYPE svg PUBLIC "-//W3C//DTD SVG 20010904//EN"
        "http://www.w3.org/TR/2001/REC-SVG-20010904/DTD/svg10.dtd">
<svg version="1.0" xmlns="http://www.w3.org/2000/svg"
     width="1000.000000pt" height="204.000000pt" viewBox="0 0 1000.000000 204.000000"
     preserveAspectRatio="xMidYMid meet">

    <g transform="translate(0.000000,204.000000) scale(0.100000,-0.100000)"
       fill="white" stroke="none">
        <path d="M4593 1868 c-13 -29 -34 -56 -100 -128 -23 -25 -45 -58 -48 -73 -8
-31 -9 -31 -34 -15 -25 15 -53 3 -161 -70 l-85 -57 -3 -87 c-2 -69 -6 -88 -17
-88 -12 0 -15 15 -15 64 0 79 -6 96 -34 96 -31 0 -156 -105 -156 -131 0 -12
115 -69 138 -69 11 0 68 -23 128 -51 153 -72 266 -119 285 -119 15 0 65 -17
114 -40 11 -5 47 -21 80 -35 32 -14 62 -29 65 -33 3 -5 21 -20 41 -35 29 -22
47 -27 93 -27 61 0 76 -12 58 -47 -21 -38 -57 -48 -125 -34 -34 7 -66 16 -72
20 -5 5 -59 25 -120 46 -60 20 -178 71 -262 111 -83 41 -158 74 -165 74 -8 0
-22 6 -33 13 -11 8 -53 27 -94 43 -71 27 -132 72 -143 104 -4 12 -9 13 -30 3
-16 -7 -32 -30 -47 -69 -20 -51 -25 -91 -35 -291 -10 -184 -16 -237 -29 -257
-9 -14 -17 -32 -17 -40 0 -20 73 -62 141 -82 30 -9 68 -22 84 -30 77 -35 201
-84 211 -84 7 0 41 -13 76 -29 35 -16 122 -56 193 -88 120 -55 215 -84 215
-66 -1 22 -49 90 -78 110 -18 12 -43 37 -55 55 -13 18 -38 42 -58 53 -19 11
-50 29 -68 40 -114 69 -161 95 -170 95 -5 0 -60 25 -120 56 l-111 56 0 139 c0
92 4 139 11 139 6 0 33 -9 60 -20 27 -11 73 -30 102 -41 28 -12 114 -52 190
-90 76 -38 145 -69 153 -69 8 0 47 -18 87 -40 75 -42 127 -89 127 -115 0 -24
42 -18 87 13 87 57 320 228 361 263 23 20 59 45 78 54 20 9 59 35 88 56 28 21
56 39 63 39 7 0 20 -26 29 -57 14 -48 15 -67 6 -118 -11 -55 -16 -64 -74 -118
-67 -61 -173 -147 -182 -147 -9 0 -138 -100 -192 -149 -65 -58 -77 -80 -61
-111 23 -45 58 -48 132 -9 36 19 78 45 93 57 15 13 45 33 67 43 22 10 65 39
95 64 30 25 103 77 161 117 l106 72 11 111 c7 62 12 208 12 324 l0 212 -22 -7
c-13 -3 -35 -13 -50 -20 -15 -8 -31 -14 -36 -14 -9 0 -145 -88 -202 -131 -19
-15 -51 -34 -71 -43 -20 -9 -45 -25 -55 -35 -42 -38 -189 -131 -193 -120 -5
17 63 82 153 145 45 32 107 77 139 101 32 24 85 57 119 73 34 17 68 36 77 44
9 7 44 28 79 45 50 25 62 36 62 55 0 32 -16 43 -80 51 -67 9 -147 42 -160 65
-6 10 -41 27 -82 40 -40 12 -91 31 -112 41 -22 10 -46 19 -53 19 -11 0 -176
79 -308 147 -115 60 -175 77 -190 53 -12 -19 -43 -11 -47 12 -3 22 -3 21 -15
-4z m67 -73 c18 -22 32 -260 28 -477 -2 -103 -6 -189 -8 -192 -8 -8 -111 19
-185 49 -116 46 -181 82 -200 111 -33 51 -41 264 -10 264 7 0 15 -19 18 -44 4
-25 14 -77 24 -118 l18 -73 5 117 c5 107 12 140 25 126 3 -2 10 -54 16 -114
11 -113 16 -140 24 -132 7 7 35 159 35 191 0 15 5 27 10 27 6 0 10 -43 11
-107 0 -90 11 -164 20 -143 1 3 5 99 8 213 6 192 8 210 26 223 10 8 24 13 30
11 12 -4 22 -67 30 -200 4 -54 10 -96 13 -92 3 3 9 84 13 179 3 95 9 178 13
184 10 16 21 15 36 -3z m371 -118 c19 -8 46 -18 61 -21 15 -3 39 -16 53 -29
25 -21 25 -24 16 -72 -6 -27 -18 -112 -26 -188 -15 -137 -27 -183 -46 -172 -5
4 -9 30 -9 59 0 104 -13 295 -20 291 -4 -2 -10 -37 -13 -77 -11 -121 -35 -309
-41 -316 -13 -13 -17 15 -26 219 -17 356 -38 320 -39 -66 l-1 -230 -36 -20
c-29 -15 -37 -16 -44 -5 -23 37 -23 557 1 533 4 -4 10 -82 14 -173 11 -307 20
-314 25 -20 3 151 10 283 14 294 7 14 17 17 46 13 20 -2 52 -12 71 -20z"/>
        <path d="M2815 1659 c-159 -27 -310 -118 -395 -241 -63 -89 -92 -176 -97 -293
-7 -128 7 -200 57 -301 83 -170 283 -301 481 -315 55 -4 63 16 12 30 -73 20
-111 79 -134 211 -18 100 -18 589 0 680 25 130 67 192 140 206 36 7 43 35 9
33 -13 -1 -45 -5 -73 -10z"/>
        <path d="M2960 1658 c0 -11 15 -17 50 -21 101 -12 192 -73 235 -156 21 -43 41
-125 47 -196 2 -16 8 -29 13 -28 9 2 18 62 38 260 l7 63 -53 26 c-71 37 -133
52 -244 60 -79 6 -93 4 -93 -8z"/>
        <path d="M7468 1660 c-108 -18 -227 -78 -306 -153 -94 -90 -160 -244 -169
-392 -11 -172 40 -315 153 -435 95 -100 202 -151 367 -174 52 -7 50 20 -2 34
-22 6 -50 23 -64 40 -47 55 -52 105 -52 505 0 323 2 377 17 426 23 73 50 106
99 120 21 7 39 18 39 26 0 14 -11 15 -82 3z"/>
        <path d="M7610 1656 c0 -8 14 -17 30 -21 41 -9 84 -54 99 -106 21 -70 30 -210
30 -449 0 -423 -22 -517 -132 -544 -42 -10 -28 -31 19 -28 132 11 250 67 350
168 323 323 145 894 -304 980 -91 17 -92 17 -92 0z"/>
        <path d="M8785 1659 c-159 -27 -310 -118 -395 -241 -63 -89 -92 -176 -97 -293
-7 -128 7 -200 57 -301 83 -170 283 -301 481 -315 55 -4 63 16 12 30 -73 20
-111 79 -134 211 -18 100 -18 589 0 680 25 130 67 192 140 206 36 7 43 35 9
33 -13 -1 -45 -5 -73 -10z"/>
        <path d="M8930 1658 c0 -11 15 -17 50 -21 101 -12 192 -73 235 -156 21 -43 41
-125 47 -196 2 -16 8 -29 13 -28 9 2 18 62 38 260 l7 63 -53 26 c-71 37 -133
52 -244 60 -79 6 -93 4 -93 -8z"/>
        <path d="M467 1654 c-13 -13 -7 -22 17 -28 16 -4 32 -22 48 -53 l23 -48 0
-440 c0 -488 -1 -497 -65 -533 -16 -9 -30 -20 -30 -24 0 -5 99 -8 220 -8 l220
0 -2 568 -3 567 -211 3 c-115 1 -213 -1 -217 -4z"/>
        <path d="M955 1649 c-10 -15 2 -26 34 -32 72 -15 121 -112 121 -243 0 -153
-34 -229 -113 -254 -26 -8 -47 -20 -47 -26 0 -6 20 -14 45 -17 93 -13 134 -53
161 -158 12 -47 15 -87 11 -148 -10 -143 -60 -211 -166 -225 -28 -4 -51 -12
-51 -18 0 -8 42 -9 148 -5 243 10 347 51 405 162 28 54 30 183 4 237 -44 88
-131 144 -262 171 -66 13 -68 14 -35 20 58 12 132 51 177 95 51 50 67 101 60
195 -8 126 -83 203 -222 231 -88 18 -263 27 -270 15z"/>
        <path d="M1677 1653 c-15 -14 -6 -23 22 -23 33 0 58 -20 66 -53 3 -12 4 -239
3 -503 -3 -453 -4 -483 -22 -502 -10 -12 -31 -24 -47 -27 -16 -4 -29 -11 -29
-16 0 -5 112 -9 270 -9 149 0 270 4 270 8 0 5 -18 14 -39 21 -63 19 -64 23
-69 482 -5 547 2 599 81 599 18 0 27 4 25 13 -4 9 -67 13 -264 15 -143 1 -263
-1 -267 -5z"/>
        <path d="M5960 1645 c0 -10 10 -15 30 -15 24 0 33 -6 40 -26 13 -34 13 -994 0
-1028 -5 -14 -20 -28 -35 -32 -65 -16 -9 -24 175 -24 l200 0 0 543 c0 409 3
546 12 555 7 7 25 12 41 12 18 0 27 4 25 13 -4 9 -64 13 -246 15 -211 2 -242
0 -242 -13z"/>
        <path d="M2992 938 c3 -7 18 -14 35 -16 55 -6 68 -31 71 -149 5 -153 -26 -220
-109 -238 -17 -4 -28 -12 -26 -18 9 -27 218 3 325 46 l57 22 6 140 c4 77 7
145 8 152 2 22 32 43 62 43 19 0 29 5 29 15 0 13 -32 15 -231 15 -180 0 -230
-3 -227 -12z"/>
        <path d="M8962 938 c3 -7 18 -14 35 -16 55 -6 68 -31 71 -149 5 -153 -26 -220
-109 -238 -17 -4 -28 -12 -26 -18 9 -27 218 3 325 46 l57 22 6 140 c4 77 7
145 8 152 2 22 32 43 62 43 19 0 29 5 29 15 0 13 -32 15 -231 15 -180 0 -230
-3 -227 -12z"/>
        <path d="M6806 873 c-3 -3 -6 -21 -6 -38 0 -88 -71 -190 -162 -234 -51 -24
-151 -51 -190 -51 -18 0 -28 -5 -28 -15 0 -13 29 -15 205 -15 l205 0 0 174 c0
159 -5 198 -24 179z"/>
    </g>
</svg>
