<?xml version="1.0" standalone="no"?>
<!DOCTYPE svg PUBLIC "-//W3C//DTD SVG 20010904//EN"
 "http://www.w3.org/TR/2001/REC-SVG-20010904/DTD/svg10.dtd">
<svg version="1.0" xmlns="http://www.w3.org/2000/svg"
 width="1000.000000pt" height="150.000000pt" viewBox="0 0 1000.000000 150.000000"
 preserveAspectRatio="xMidYMid meet">

<g transform="translate(0.000000,150.000000) scale(0.100000,-0.100000)"
fill="white" stroke="none">
<path d="M4395 1293 c-8 -21 -38 -59 -65 -85 -36 -33 -50 -54 -51 -75 -1 -16
-3 -21 -6 -10 -3 10 -14 17 -27 17 -22 0 -169 -90 -183 -113 -4 -6 -6 -40 -5
-75 2 -49 0 -63 -10 -59 -9 3 -13 24 -12 65 1 52 -2 63 -18 68 -13 4 -27 -2
-41 -18 -13 -13 -37 -33 -55 -43 -40 -24 -51 -54 -26 -69 11 -6 51 -23 89 -37
39 -14 101 -41 139 -58 37 -18 127 -54 200 -81 166 -60 203 -78 245 -113 26
-22 40 -28 62 -23 55 11 77 -15 41 -47 -27 -24 -65 -21 -161 14 -143 52 -217
84 -386 164 -60 29 -128 58 -150 65 -54 17 -82 37 -88 61 -10 38 -49 20 -77
-36 -23 -47 -25 -63 -30 -238 -4 -168 -7 -190 -23 -202 -10 -7 -17 -22 -15
-31 4 -25 59 -60 105 -69 21 -4 52 -13 68 -20 17 -8 62 -26 100 -41 39 -14 84
-32 100 -39 17 -8 64 -28 105 -45 41 -17 84 -35 95 -40 168 -76 195 -78 161
-12 -18 35 -50 64 -67 60 -7 -2 -15 6 -17 17 -5 25 -41 65 -58 65 -7 0 -14 4
-16 9 -1 4 -83 48 -180 97 l-178 88 0 108 c0 59 2 108 4 108 11 0 124 -49 321
-140 22 -10 76 -35 120 -55 81 -37 135 -78 135 -102 0 -31 33 -22 112 33 46
31 97 68 113 81 40 31 43 33 95 68 25 16 47 32 50 36 3 3 43 31 90 62 l85 56
12 -27 c19 -43 16 -122 -7 -159 -19 -32 -108 -105 -241 -198 -85 -59 -144
-113 -153 -139 -10 -28 19 -66 50 -66 39 0 132 55 304 179 58 42 121 87 141
100 l36 24 12 111 c14 123 20 400 9 411 -13 13 -121 -45 -265 -143 -230 -155
-264 -175 -232 -136 22 27 280 214 295 214 2 0 27 15 57 34 29 19 74 44 100
56 36 17 47 27 47 46 0 28 -19 39 -85 49 -58 8 -100 28 -108 50 -4 8 -16 15
-27 15 -45 0 -325 121 -451 195 -59 34 -112 45 -124 25 -9 -15 -25 -12 -25 4
0 32 -20 25 -35 -11z m77 -94 c9 -61 10 -489 1 -489 -18 0 -192 64 -242 88
-29 15 -59 36 -66 47 -20 31 -25 205 -6 205 5 0 12 -12 15 -27 2 -16 10 -58
17 -95 7 -38 16 -68 21 -68 4 0 8 48 9 108 0 129 15 110 25 -33 4 -52 10 -95
14 -95 4 0 13 30 19 68 29 153 28 153 30 45 0 -56 4 -108 7 -117 16 -42 24 10
24 163 0 135 3 171 15 181 8 6 18 9 23 6 5 -3 12 -60 15 -127 11 -202 34 -182
36 33 1 69 4 134 7 143 11 28 29 10 36 -36z m268 -45 c88 -30 130 -56 121 -73
-5 -9 -14 -74 -20 -146 -13 -141 -17 -165 -32 -165 -5 0 -9 60 -9 139 0 77 -4
142 -9 146 -5 3 -12 -3 -14 -12 -7 -26 -26 -167 -33 -246 -3 -38 -9 -66 -12
-62 -4 4 -9 87 -12 185 -5 169 -10 203 -27 186 -5 -4 -8 -103 -8 -219 l0 -211
-28 -16 c-24 -13 -29 -13 -37 0 -6 9 -9 111 -8 240 0 149 3 206 8 170 5 -30 8
-107 9 -171 1 -131 10 -209 22 -209 5 0 9 99 9 221 0 204 6 259 28 259 4 0 27
-7 52 -16z"/>
<path d="M1321 1248 c-112 -25 -220 -209 -221 -377 0 -136 66 -268 160 -319
39 -20 54 -23 111 -19 95 8 156 40 195 102 44 70 87 120 92 106 9 -28 -92
-160 -153 -199 -31 -21 -36 -27 -22 -30 10 -2 29 -1 41 2 35 9 117 78 156 132
l35 49 0 140 c0 134 -1 142 -29 200 -36 72 -137 177 -198 205 -46 21 -97 24
-167 8z m103 -50 c16 -26 20 -126 18 -425 l-2 -193 -78 0 c-50 0 -85 5 -97 14
-18 13 -18 15 0 62 l19 49 9 -52 c5 -29 12 -53 17 -53 14 0 20 42 30 225 12
203 27 372 36 386 10 16 33 10 48 -13z"/>
<path d="M8755 1254 c-27 -8 -56 -35 -52 -48 2 -6 -4 -22 -14 -35 -11 -13 -23
-40 -28 -60 -23 -92 -23 -91 4 -103 28 -13 32 -30 10 -48 -19 -16 -19 -50 0
-64 15 -11 24 -61 45 -256 14 -133 20 -160 30 -160 6 0 10 14 10 30 0 46 74
155 123 182 17 9 17 8 3 -19 -8 -15 -33 -48 -55 -71 -39 -41 -52 -72 -32 -72
23 0 43 15 57 41 8 17 23 29 34 29 24 0 24 -3 6 -39 -21 -39 -82 -91 -117 -98
-37 -7 -58 -30 -36 -39 9 -3 114 -4 234 -2 165 4 233 9 278 22 203 57 375 184
437 323 32 72 30 163 -5 228 -47 84 -158 153 -307 190 -89 22 -213 47 -275 55
-95 13 -322 21 -350 14z m305 -43 c25 -5 79 -14 120 -21 181 -28 349 -90 422
-154 43 -39 68 -98 68 -163 -1 -76 -25 -127 -63 -131 -23 -3 -27 -7 -21 -24 9
-30 -86 -116 -178 -161 -77 -38 -165 -57 -363 -77 -110 -11 -143 -12 -129 -2
6 4 14 24 17 45 3 21 17 51 31 68 14 17 26 35 26 40 0 13 -24 11 -39 -3 -11
-11 -12 -5 -6 32 16 94 20 240 11 388 -11 186 -12 184 104 163z m-165 -731 c3
-5 -1 -10 -9 -10 -9 0 -16 5 -16 10 0 6 4 10 9 10 6 0 13 -4 16 -10z"/>
<path d="M223 1240 c-12 -5 -27 -19 -33 -31 -17 -31 3 -41 67 -33 45 5 54 4
59 -11 4 -10 0 -32 -10 -49 -16 -30 -16 -34 0 -71 13 -32 18 -86 22 -262 4
-200 3 -223 -12 -229 -26 -10 -18 -31 17 -44 38 -13 506 -26 589 -16 56 7 57
8 48 32 -6 14 -10 49 -10 79 0 29 -3 60 -6 69 -10 25 -32 19 -49 -14 -9 -17
-27 -36 -40 -42 -16 -7 -24 -18 -22 -32 3 -30 -50 -45 -164 -45 l-96 -1 -7 61
c-8 82 -6 451 3 515 5 35 17 64 40 93 l33 41 -204 -1 c-111 0 -213 -4 -225 -9z"/>
<path d="M2065 1230 c-104 -4 -198 -10 -207 -14 -18 -8 -25 -36 -10 -36 5 0
15 -12 22 -27 10 -21 15 -107 18 -333 l4 -305 -56 -24 c-31 -12 -56 -29 -56
-36 0 -17 95 -30 142 -21 33 7 254 23 336 25 23 1 42 4 42 9 0 4 -27 16 -61
26 -85 28 -91 34 -98 102 -8 99 -6 183 7 196 17 17 91 25 140 15 30 -6 47 -5
57 3 19 16 19 70 1 95 -14 19 -15 19 -34 2 -14 -13 -43 -20 -94 -24 l-73 -6 3
94 c2 52 9 121 16 154 l12 60 44 8 c63 12 200 1 218 -17 8 -8 16 -32 18 -54 6
-91 50 -111 79 -36 26 70 30 117 10 137 -18 19 -105 20 -480 7z"/>
<path d="M2643 1218 c-30 -14 -29 -24 4 -40 16 -8 31 -27 38 -48 17 -51 48
-52 74 -3 25 49 56 64 152 70 l77 6 6 -139 c5 -124 18 -328 31 -515 l5 -65
-53 -35 c-85 -56 -75 -64 87 -67 213 -4 353 35 256 71 -34 13 -35 17 -18 63 9
27 9 35 -5 49 -15 14 -17 47 -17 274 0 288 -3 319 -34 330 -42 16 35 22 158
12 85 -7 124 -15 137 -27 23 -21 39 -10 39 25 0 24 -6 30 -39 39 -52 16 -866
15 -898 0z"/>
<path d="M8076 1205 c-48 -17 -158 -124 -221 -214 -62 -91 -88 -169 -83 -251
6 -112 67 -198 208 -298 96 -68 100 -82 22 -82 -58 0 -41 -14 37 -31 54 -11
178 0 219 19 9 5 39 19 65 32 59 29 209 185 251 261 25 45 26 51 10 45 -47
-20 -58 -20 -50 -1 28 74 11 206 -37 285 -66 108 -178 208 -266 238 -45 16
-107 14 -155 -3z m171 -47 c46 -21 54 -37 48 -98 -19 -209 -14 -525 11 -612
13 -46 24 -9 24 80 0 109 1 112 84 160 l39 23 -47 -52 c-25 -28 -46 -55 -46
-60 0 -17 27 -9 66 21 69 52 83 37 30 -33 -38 -50 -59 -85 -62 -107 -4 -19
-38 -45 -94 -71 -25 -11 -54 -25 -64 -31 -11 -6 -45 -13 -76 -15 l-57 -5 -7
240 c-7 241 -1 392 16 425 6 12 4 22 -7 33 -18 19 -20 95 -2 113 14 15 100 8
144 -11z"/>
<path d="M5317 1189 c-5 -17 -11 -19 -39 -14 -23 4 -38 2 -46 -7 -18 -22 2
-40 52 -45 45 -6 48 -8 98 -82 61 -91 91 -134 98 -141 3 -3 19 -25 35 -50 16
-25 33 -47 36 -50 8 -8 151 -228 182 -282 40 -69 77 -144 77 -156 0 -11 -59
-25 -158 -39 -82 -12 -68 -28 27 -31 71 -2 131 5 186 22 6 1 28 6 50 11 46 9
79 24 71 32 -12 13 74 149 138 218 19 21 28 24 43 16 51 -28 133 -150 133
-198 0 -14 -7 -31 -15 -39 -28 -28 -7 -45 49 -40 28 3 113 8 189 12 75 4 137
10 137 14 0 15 -32 20 -119 20 -101 0 -124 11 -119 55 2 23 12 34 38 47 48 23
85 24 75 1 -32 -76 -5 -82 36 -8 14 26 34 52 43 57 9 5 16 17 16 26 0 10 4 22
9 28 4 5 22 34 38 64 17 30 40 73 53 95 13 22 48 87 78 145 89 171 131 220
189 220 15 0 15 2 3 15 -19 19 -162 35 -312 35 -101 0 -118 -2 -118 -16 0 -9
10 -18 21 -21 19 -5 21 -11 17 -60 -3 -36 -11 -60 -26 -76 -12 -13 -22 -33
-22 -44 0 -11 -6 -26 -14 -32 -7 -6 -16 -29 -20 -50 -3 -20 -15 -46 -26 -56
-11 -10 -20 -24 -20 -32 0 -7 -18 -37 -41 -65 -27 -35 -36 -53 -28 -58 30 -19
-34 -93 -71 -83 -33 9 -99 91 -105 132 -11 67 -16 82 -24 77 -4 -3 -26 10 -49
29 -54 47 -79 46 -73 -3 1 -7 -15 -47 -35 -88 -26 -51 -43 -74 -53 -72 -20 4
-88 103 -96 141 -5 20 -13 27 -30 27 -34 0 -104 85 -158 193 -25 51 -49 104
-53 120 l-6 27 63 0 c65 0 101 11 80 24 -6 4 -103 11 -216 16 -113 4 -211 12
-218 17 -27 21 -45 22 -50 2z"/>
<path d="M7270 1164 c-69 -22 -124 -57 -139 -89 -8 -17 -33 -51 -56 -77 -34
-38 -47 -64 -64 -126 -29 -107 -29 -237 0 -312 18 -47 19 -60 9 -93 -6 -22
-10 -40 -8 -41 4 -4 124 -35 169 -45 48 -10 59 -18 59 -43 0 -20 1 -20 20 -3
17 16 23 16 52 4 45 -19 128 -14 175 9 39 20 129 135 171 217 45 90 54 262 19
364 -40 114 -134 216 -222 240 -54 15 -130 13 -185 -5z m138 -15 c51 -9 73
-19 104 -47 37 -34 38 -35 21 -54 -10 -11 -26 -24 -35 -29 -16 -9 -16 -6 -3
32 15 41 12 65 -6 54 -5 -4 -21 3 -35 14 -15 12 -30 21 -34 21 -4 0 -10 -27
-13 -61 -3 -36 -12 -68 -22 -79 -21 -23 -13 -50 14 -50 24 0 26 -18 41 -339 6
-129 13 -239 17 -244 8 -13 -131 -1 -158 14 -26 14 -18 23 38 44 54 20 84 42
43 31 -14 -3 -44 -9 -66 -12 l-42 -6 -6 38 c-3 22 -11 112 -18 202 -9 131 -9
180 1 250 7 48 16 116 19 152 6 57 10 65 32 71 36 10 37 10 108 -2z"/>
</g>
</svg>
