<?xml version="1.0" standalone="no"?>
<!DOCTYPE svg PUBLIC "-//W3C//DTD SVG 20010904//EN"
 "http://www.w3.org/TR/2001/REC-SVG-20010904/DTD/svg10.dtd">
<svg version="1.0" xmlns="http://www.w3.org/2000/svg"
 width="50.000000pt" height="50.000000pt" viewBox="0 0 50.000000 50.000000"
 preserveAspectRatio="xMidYMid meet">

<g transform="translate(0.000000,50.000000) scale(0.100000,-0.100000)"
fill="white" stroke="none">
<path d="M17 388 c-12 -44 1 -46 221 -41 114 2 217 6 230 9 26 5 30 39 6 48
-9 3 -114 6 -234 6 -216 0 -218 0 -223 -22z m248 -8 c8 -13 -15 -13 -35 0 -12
8 -11 10 7 10 12 0 25 -4 28 -10z"/>
<path d="M370 328 c-6 -7 -26 -35 -45 -62 -26 -38 -32 -53 -23 -63 6 -7 14
-13 18 -13 10 0 120 131 120 142 0 13 -58 9 -70 -4z"/>
<path d="M86 318 c36 -59 78 -106 93 -105 15 1 13 9 -17 59 -27 45 -40 58 -59
58 -17 0 -22 -4 -17 -12z"/>
<path d="M57 193 c-19 -18 4 -23 118 -23 104 0 125 2 125 15 0 12 -20 15 -118
15 -65 0 -122 -3 -125 -7z"/>
</g>
</svg>
