<?xml version="1.0" standalone="no"?>
<!DOCTYPE svg PUBLIC "-//W3C//DTD SVG 20010904//EN"
        "http://www.w3.org/TR/2001/REC-SVG-20010904/DTD/svg10.dtd">
<svg version="1.0" xmlns="http://www.w3.org/2000/svg"
     width="655.000000pt" height="573.000000pt" viewBox="0 0 655.000000 573.000000"
     preserveAspectRatio="xMidYMid meet">

    <g transform="translate(0.000000,570.000000) scale(0.100000,-0.100000)"
       fill="white" stroke="none">
        <path d="M2652 3597 c-1024 -1024 -1862 -1867 -1862 -1874 0 -15 1452 -1468
1476 -1477 26 -10 3747 3710 3738 3737 -7 23 -1461 1477 -1477 1477 -7 0 -850
-838 -1875 -1863z m2132 1357 c135 -135 246 -252 246 -259 0 -8 -174 -188
-387 -401 -214 -213 -396 -399 -405 -413 -49 -72 19 -171 97 -141 13 5 204
189 425 410 221 220 407 400 415 400 17 0 215 -198 215 -215 0 -7 -79 -91
-176 -187 -157 -157 -176 -179 -181 -214 -4 -33 -1 -45 22 -72 21 -25 34 -32
63 -32 35 0 49 12 217 180 99 99 187 180 197 180 19 0 218 -195 218 -213 0
-15 -3461 -3477 -3475 -3477 -16 0 -915 903 -915 920 0 8 113 127 250 265 218
218 250 254 250 281 0 61 -66 106 -123 85 -15 -6 -135 -119 -268 -251 -132
-132 -246 -240 -253 -240 -14 0 -158 142 -165 162 -4 12 3459 3478 3476 3478
6 0 122 -111 257 -246z"/>
        <path d="M4311 4633 c-8 -3 -291 -282 -628 -619 l-613 -613 0 -44 c0 -57 30
-87 86 -87 38 0 49 10 662 623 586 586 622 624 622 657 0 66 -66 108 -129 83z"/>
        <path d="M3763 2594 c-218 -217 -407 -409 -420 -426 -67 -92 34 -195 123 -126
16 13 208 202 427 421 l397 397 0 43 c0 58 -30 87 -89 87 l-42 0 -396 -396z"/>
        <path d="M2550 2385 l-415 -415 0 -45 c0 -59 29 -90 85 -90 40 0 46 6 467 427
l426 426 -7 37 c-11 57 -32 75 -91 75 l-50 0 -415 -415z"/>
        <path d="M2431 1588 c-156 -156 -287 -294 -292 -307 -5 -13 -7 -39 -3 -58 10
-52 75 -79 127 -52 36 20 557 549 568 577 22 58 -20 122 -81 122 -35 0 -52
-16 -319 -282z"/>
    </g>
</svg>
